wght100.ufo
<glyph name="zero" format="2">
	<unicode hex="0030"/>
	<advance width="1189"/>
	<outline>
		<contour>
			<point x="77.580078125" y="748.9849853516" type="qcurve" smooth="yes"/>
			<point x="130.4487915039" y="1075.8901977539"/>
			<point x="477.8572998047" y="1535.5654907227"/>
			<point x="714.8319091797" y="1525.9699707031" type="qcurve" smooth="yes"/>
			<point x="932.8764038086" y="1516.3744506836"/>
			<point x="1153.6412963867" y="1068.557434082"/>
			<point x="1107.6171264648" y="753.696472168" type="qcurve" smooth="yes"/>
			<point x="1061.6904296875" y="428.9721679688"/>
			<point x="725.6063232422" y="-30.5955200195"/>
			<point x="490.6795654297" y="-24" type="qcurve" smooth="yes"/>
			<point x="252.6697387695" y="-17.4044799805"/>
			<point x="25.1672363281" y="428.5951538086"/>
		</contour>
		<contour>
			<point x="268.5826416016" y="782.9849853516" type="qcurve" smooth="yes"/>
			<point x="217.8505859375" y="454.9849853516"/>
			<point x="347.9417724609" y="93.0014648438"/>
			<point x="499.0042724609" y="88.0014648438" type="qcurve" smooth="yes"/>
			<point x="666.5667724609" y="83.0014648438"/>
			<point x="874.9203491211" y="427.9849853516"/>
			<point x="923.2100830078" y="756.9849853516" type="qcurve" smooth="yes"/>
			<point x="969.6931152344" y="1067.9849853516"/>
			<point x="844.2761230469" y="1401.9876098633"/>
			<point x="690.9011230469" y="1408.9876098633" type="qcurve" smooth="yes"/>
			<point x="531.2761230469" y="1415.9876098633"/>
			<point x="312.6901855469" y="1070.9849853516"/>
		</contour>
	</outline>
</glyph>
<glyph name="one" format="2">
	<unicode hex="0031"/>
	<advance width="692"/>
	<outline>
		<contour>
			<point x="130.3471069336" y="-10.9037475586" type="line"/>
			<point x="139.670715332" y="55.7244873047"/>
			<point x="158.9368896484" y="169.1691894531"/>
			<point x="176.9489746094" y="276.5196533203" type="qcurve" smooth="yes"/>
			<point x="308.7103271484" y="1058.1058959961" type="line"/>
			<point x="342.1265869141" y="1333.0791625977" type="line"/>
			<point x="92.938293457" y="1208.3363647461" type="line"/>
			<point x="61.0147094727" y="1299.1262207031" type="line"/>
			<point x="512.8892822266" y="1549.9216308594" type="line"/>
			<point x="552.2360839844" y="1519.325012207" type="line"/>
			<point x="545.3394165039" y="1485.8547973633"/>
			<point x="528.4069213867" y="1333.8359985352"/>
			<point x="526.6890869141" y="1324.3379516602" type="qcurve" smooth="yes"/>
			<point x="421.9508666992" y="721.8520507812" type="line"/>
			<point x="346.0141601562" y="146.2791137695" type="line"/>
			<point x="182.4440917969" y="-35.2887573242" type="line"/>
		</contour>
	</outline>
</glyph>
<glyph name="two" format="2">
	<unicode hex="0032"/>
	<advance width="937"/>
	<outline>
		<contour>
			<point x="-54.2656860352" y="11.1450195312" type="qcurve"/>
			<point x="-89.5308837891" y="68.2691040039" type="line"/>
			<point x="29.9286499023" y="190.158203125" type="line" smooth="yes"/>
			<point x="375.7746582031" y="562.9811401367"/>
			<point x="690.0405883789" y="1011.4252929688"/>
			<point x="696.9298095703" y="1194.0152587891" type="qcurve" smooth="yes"/>
			<point x="701.9609985352" y="1277.5341186523"/>
			<point x="596.1735229492" y="1409.0797119141"/>
			<point x="490.4167480469" y="1409.0797119141" type="qcurve" smooth="yes"/>
			<point x="420.7612304688" y="1409.0797119141"/>
			<point x="237.9325561523" y="1325.1287841797"/>
			<point x="177.1323242188" y="1249.0961914062" type="qcurve"/>
			<point x="101.9593505859" y="1314.3745727539" type="line"/>
			<point x="181.1943359375" y="1406.0248413086"/>
			<point x="420.8069458008" y="1535.2794189453"/>
			<point x="551.6073608398" y="1535.2794189453" type="qcurve" smooth="yes"/>
			<point x="712.024597168" y="1535.2794189453"/>
			<point x="907.7067260742" y="1343.0314941406"/>
			<point x="896.817565918" y="1195.7191772461" type="qcurve" smooth="yes"/>
			<point x="878.794128418" y="992.2783203125"/>
			<point x="502.3225708008" y="516.8046264648"/>
			<point x="226.1126098633" y="264.5272216797" type="qcurve"/>
			<point x="217.7310180664" y="276.3071899414" type="line"/>
			<point x="204.5679931641" y="261.2076416016"/>
			<point x="129.1624145508" y="252.1126098633"/>
			<point x="91.5939331055" y="255.9969482422" type="qcurve"/>
			<point x="253.2438964844" y="215.3891601562"/>
			<point x="483.7723999023" y="185.4706420898"/>
			<point x="600.5982055664" y="165.4867553711" type="qcurve"/>
			<point x="732.9866333008" y="377.2991943359" type="line"/>
			<point x="806.8491210938" y="360.2869873047" type="line"/>
			<point x="663.5339355469" y="-32.8623046875" type="line"/>
			<point x="540.4365234375" y="7.3202514648"/>
			<point x="198.8282470703" y="84.0124511719"/>
			<point x="79.6392211914" y="81.4048461914" type="qcurve" smooth="yes"/>
			<point x="12.3249511719" y="79.8032836914"/>
			<point x="-11.6226806641" y="46.2779541016"/>
		</contour>
	</outline>
</glyph>
<glyph name="three" format="2">
	<unicode hex="0033"/>
	<advance width="980"/>
	<outline>
		<contour>
			<point x="-72.4229736328" y="163.6196289062" type="qcurve"/>
			<point x="-72.0474853516" y="232.6999511719"/>
			<point x="13.8314208984" y="346.2093505859"/>
			<point x="96.9498291016" y="359.6586303711" type="qcurve"/>
			<point x="125.5295410156" y="356.8418579102" type="line"/>
			<point x="111.7205810547" y="338.8116455078"/>
			<point x="97.0648193359" y="297.716003418"/>
			<point x="97.5071411133" y="257.6737060547" type="qcurve" smooth="yes"/>
			<point x="96.7561645508" y="147.0036010742"/>
			<point x="183.7885131836" y="76.8210449219"/>
			<point x="259.7285766602" y="76.8210449219" type="qcurve" smooth="yes"/>
			<point x="460.5634765625" y="76.8210449219"/>
			<point x="659.2774658203" y="307.8413085938"/>
			<point x="659.8084106445" y="460.416809082" type="qcurve" smooth="yes"/>
			<point x="661.9058837891" y="590.6964111328"/>
			<point x="511.7437133789" y="775.3259277344"/>
			<point x="373.2737426758" y="790.4217529297" type="qcurve" smooth="yes"/>
			<point x="303.8098144531" y="796.2006835938" type="line"/>
			<point x="314.9729003906" y="886.8040771484" type="line"/>
			<point x="365.8386230469" y="889.4831542969" type="line" smooth="yes"/>
			<point x="518.7956542969" y="898.0780639648"/>
			<point x="702.1240234375" y="1076.5574951172"/>
			<point x="700.2504882812" y="1222.5531616211" type="qcurve" smooth="yes"/>
			<point x="699.0014648438" y="1320.0211181641"/>
			<point x="619.2426147461" y="1413.4953613281"/>
			<point x="519.9979858398" y="1413.4953613281" type="qcurve" smooth="yes"/>
			<point x="432.4310302734" y="1413.4953613281"/>
			<point x="295.6477661133" y="1339.7476196289"/>
			<point x="228.7549438477" y="1262.2909545898" type="qcurve"/>
			<point x="158.0310668945" y="1330.2121582031" type="line"/>
			<point x="233.4252319336" y="1422.9392700195"/>
			<point x="428.7446899414" y="1538.6440429688"/>
			<point x="574.7665405273" y="1538.6440429688" type="qcurve" smooth="yes"/>
			<point x="712.5965576172" y="1538.6440429688"/>
			<point x="884.0686035156" y="1392.1618652344"/>
			<point x="882.9421386719" y="1243.4718017578" type="qcurve" smooth="yes"/>
			<point x="882.1911621094" y="1098.7875366211"/>
			<point x="727.5588378906" y="880.1563110352"/>
			<point x="607.5940551758" y="850.8565063477" type="qcurve"/>
			<point x="606.5940551758" y="844.8323364258" type="line"/>
			<point x="705.6221313477" y="816.0986328125"/>
			<point x="845.9730224609" y="622.0777587891"/>
			<point x="844.8465576172" y="478.9310913086" type="qcurve" smooth="yes"/>
			<point x="843.7200927734" y="289.9774169922"/>
			<point x="507.4329833984" y="-24"/>
			<point x="217.9898681641" y="-24" type="qcurve" smooth="yes"/>
			<point x="75.9713745117" y="-24"/>
			<point x="-72.7984619141" y="68.4522094727"/>
		</contour>
	</outline>
</glyph>
<glyph name="four" format="2">
	<unicode hex="0034"/>
	<advance width="1018"/>
	<outline>
		<contour>
			<point x="19.4960327148" y="456.4780273438" type="line"/>
			<point x="13" y="539" type="line"/>
			<point x="859.8088378906" y="1531.8732910156" type="line"/>
			<point x="936.4952392578" y="1492.030090332" type="line"/>
			<point x="940.6638793945" y="1451.4345703125" type="line"/>
			<point x="771.7434692383" y="521.8248291016" type="line"/>
			<point x="762.7434692383" y="488.8248291016" type="line"/>
			<point x="687.1506347656" y="121.7982788086" type="line"/>
			<point x="678.7106323242" y="16.1462402344" type="line"/>
			<point x="511.3378295898" y="-39.6745605469" type="line"/>
			<point x="486.7423095703" y="15.5164794922" type="line"/>
			<point x="584.1005859375" y="484.8248291016" type="line"/>
			<point x="594.1005859375" y="521.8248291016" type="line"/>
			<point x="731.8170166016" y="1225.3947753906" type="line"/>
			<point x="168" y="559" type="line"/>
			<point x="203.7556152344" y="553.6330566406" type="line"/>
			<point x="660.4097290039" y="556.2869873047" type="line"/>
			<point x="916.4776000977" y="555.8446655273" type="line"/>
			<point x="899.8427734375" y="455.4780273438" type="line"/>
			<point x="645.7749023438" y="438.8240966797" type="line"/>
		</contour>
	</outline>
</glyph>
<glyph name="five" format="2">
	<unicode hex="0035"/>
	<advance width="864"/>
	<outline>
		<contour>
			<point x="-109.9376831055" y="202.682800293" type="qcurve" smooth="yes"/>
			<point x="-109.9376831055" y="276.1220703125"/>
			<point x="-50.5913085938" y="349.1420288086"/>
			<point x="2.315246582" y="362.3911743164" type="qcurve"/>
			<point x="19.703918457" y="353.9849243164" type="line"/>
			<point x="21.4680786133" y="234.3638916016" type="line" smooth="yes"/>
			<point x="69.2783203125" y="170.6484375"/>
			<point x="147.1606445312" y="79.8931274414"/>
			<point x="237.0717163086" y="79.8931274414" type="qcurve" smooth="yes"/>
			<point x="400.9760131836" y="79.8931274414"/>
			<point x="589.3302001953" y="358.6236572266"/>
			<point x="595.3787231445" y="550.5015869141" type="qcurve" smooth="yes"/>
			<point x="600.4272460938" y="713.7386474609"/>
			<point x="473.0329589844" y="879.3161621094"/>
			<point x="245.5134887695" y="816.4635009766" type="qcurve" smooth="yes"/>
			<point x="136.7232055664" y="786.7818603516" type="line"/>
			<point x="102.2777709961" y="848.2420654297" type="line"/>
			<point x="267.4880981445" y="1454.4967651367" type="line"/>
			<point x="312.2523193359" y="1505.9518432617" type="line"/>
			<point x="886.3869628906" y="1505.9518432617" type="line"/>
			<point x="856.1168823242" y="1332.3089599609" type="line"/>
			<point x="358.2388305664" y="1332.3089599609" type="line"/>
			<point x="342.4746704102" y="1317.0980224609" type="line"/>
			<point x="293.1534423828" y="1125.2412719727"/>
			<point x="240.8972167969" y="932.7120361328"/>
			<point x="203.4045410156" y="890.9873657227" type="qcurve"/>
			<point x="448.2341918945" y="954.8217163086" type="line"/>
			<point x="628.9677124023" y="950.4976196289"/>
			<point x="789.4629516602" y="752.1614990234"/>
			<point x="786.0874633789" y="568.3263549805" type="qcurve" smooth="yes"/>
			<point x="781.3364868164" y="318.3057861328"/>
			<point x="465.0562133789" y="-24"/>
			<point x="202.078125" y="-24" type="qcurve" smooth="yes"/>
			<point x="52.8342285156" y="-24"/>
			<point x="-109.9376831055" y="94.3927612305"/>
		</contour>
	</outline>
</glyph>
<glyph name="six" format="2">
	<unicode hex="0036"/>
	<advance width="1068"/>
	<outline>
		<contour>
			<point x="56" y="472.9456787109" type="qcurve" smooth="yes"/>
			<point x="59.2292480469" y="817.2568969727"/>
			<point x="581.1499023438" y="1439.2095336914"/>
			<point x="936.2223510742" y="1557.7588500977" type="qcurve"/>
			<point x="978.7742919922" y="1465.6271362305" type="line"/>
			<point x="726.2994995117" y="1376.3423461914"/>
			<point x="241.2113647461" y="867.4559936523"/>
			<point x="233.2410888672" y="438.2465209961" type="qcurve" smooth="yes"/>
			<point x="229.7704467773" y="285.8555297852"/>
			<point x="376.1618041992" y="87.9893798828"/>
			<point x="499.3167114258" y="88.5848999023" type="qcurve" smooth="yes"/>
			<point x="603.4692993164" y="88.5848999023"/>
			<point x="789.0233154297" y="306.8649291992"/>
			<point x="789.1213378906" y="542.0305786133" type="qcurve" smooth="yes"/>
			<point x="792.5569458008" y="627.0060424805"/>
			<point x="716.8275146484" y="794.5678710938"/>
			<point x="589.7686157227" y="794.5678710938" type="qcurve" smooth="yes"/>
			<point x="573.983581543" y="794.5678710938"/>
			<point x="496.4115600586" y="762.2267456055"/>
			<point x="465.5770874023" y="736.2719116211" type="qcurve"/>
			<point x="447.5311889648" y="801.1447753906" type="line"/>
			<point x="472.5445556641" y="834.4084472656"/>
			<point x="599.380065918" y="904.575378418"/>
			<point x="650.950378418" y="905.575378418" type="qcurve" smooth="yes"/>
			<point x="815.0516967773" y="907.575378418"/>
			<point x="983.3184204102" y="678.3883056641"/>
			<point x="981.5160522461" y="534.4108886719" type="qcurve" smooth="yes"/>
			<point x="978.5292358398" y="284.4708251953"/>
			<point x="664.8469848633" y="-23.4044799805"/>
			<point x="457.5941162109" y="-23.4044799805" type="qcurve" smooth="yes"/>
			<point x="290.5906982422" y="-24"/>
			<point x="53.388671875" y="229.7302856445"/>
		</contour>
	</outline>
</glyph>
<glyph name="seven" format="2">
	<unicode hex="0037"/>
	<advance width="899"/>
	<outline>
		<contour>
			<point x="101.0034790039" y="1161.2656860352" type="line"/>
			<point x="242.9929199219" y="1505.9639282227" type="line"/>
			<point x="970.8392333984" y="1505.9639282227" type="line"/>
			<point x="984.7604980469" y="1465.251953125" type="line"/>
			<point x="750.7344360352" y="1032.1232299805"/>
			<point x="396.8413085938" y="276.8092651367"/>
			<point x="380.8392333984" y="47.0684814453" type="qcurve"/>
			<point x="185.8590698242" y="-32" type="line"/>
			<point x="140.8472290039" y="51.0908813477" type="line"/>
			<point x="237.9476318359" y="308.8228759766"/>
			<point x="665.1533813477" y="1083.592956543"/>
			<point x="784.9650878906" y="1323.0852050781" type="qcurve"/>
			<point x="775.2180175781" y="1337.0852050781" type="line"/>
			<point x="323.2794189453" y="1337.0852050781" type="line"/>
			<point x="202.0042114258" y="1161.2656860352" type="line"/>
		</contour>
	</outline>
</glyph>
<glyph name="eight" format="2">
	<unicode hex="0038"/>
	<advance width="933"/>
	<outline>
		<contour>
			<point x="410.5440063477" y="833.0787963867" type="qcurve"/>
			<point x="487.3770751953" y="765.1298217773" type="line"/>
			<point x="352.305480957" y="701.5707397461"/>
			<point x="92.0766601562" y="469.3173828125"/>
			<point x="91.6951293945" y="324.8931884766" type="qcurve" smooth="yes"/>
			<point x="91.6890869141" y="226.1016845703"/>
			<point x="212.7455444336" y="85.1047363281"/>
			<point x="341.1580810547" y="85.1047363281" type="qcurve" smooth="yes"/>
			<point x="488.3052368164" y="85.1047363281"/>
			<point x="674.1142578125" y="261.9192504883"/>
			<point x="674.4957885742" y="416.7218017578" type="qcurve" smooth="yes"/>
			<point x="674.8773193359" y="541.2080078125"/>
			<point x="494.5895385742" y="717.9036865234"/>
			<point x="410.735534668" y="776.846862793" type="qcurve" smooth="yes"/>
			<point x="345.7356567383" y="823.1292724609"/>
			<point x="205.2439575195" y="1004.7926635742"/>
			<point x="205.6194458008" y="1158.0266723633" type="qcurve" smooth="yes"/>
			<point x="206.3704223633" y="1305.1919555664"/>
			<point x="441.3120117188" y="1525.9458007812"/>
			<point x="664.3598022461" y="1525.9458007812" type="qcurve" smooth="yes"/>
			<point x="786.7649536133" y="1525.5703125"/>
			<point x="948.9066162109" y="1376.1533813477"/>
			<point x="948.1556396484" y="1269.7727050781" type="qcurve" smooth="yes"/>
			<point x="947.7922363281" y="1133.2495727539"/>
			<point x="785.5543823242" y="928.4403076172"/>
			<point x="606.8177490234" y="825.9931030273" type="qcurve"/>
			<point x="531.1444091797" y="897.3218383789" type="line"/>
			<point x="662.49609375" y="963.8836669922"/>
			<point x="816.3630981445" y="1153.6156005859"/>
			<point x="816.3630981445" y="1247.4594116211" type="qcurve" smooth="yes"/>
			<point x="816.7446289062" y="1327.4977416992"/>
			<point x="712.3916015625" y="1413.4536743164"/>
			<point x="659.1427612305" y="1413.4536743164" type="qcurve" smooth="yes"/>
			<point x="499.811340332" y="1413.4536743164"/>
			<point x="362.4099121094" y="1267.8911743164"/>
			<point x="362.4099121094" y="1174.6173095703" type="qcurve" smooth="yes"/>
			<point x="362.0344238281" y="1089.2584838867"/>
			<point x="508.5115356445" y="948.1952514648"/>
			<point x="634.9534301758" y="848.7105102539" type="qcurve" smooth="yes"/>
			<point x="751.8471069336" y="755.3842163086"/>
			<point x="849.8140258789" y="565.6568603516"/>
			<point x="849.4264526367" y="434.9001464844" type="qcurve" smooth="yes"/>
			<point x="848.6633911133" y="243.2276611328"/>
			<point x="541.176574707" y="-24"/>
			<point x="352.9317626953" y="-24" type="qcurve" smooth="yes"/>
			<point x="155.7091064453" y="-24"/>
			<point x="-54.8838500977" y="158.7069702148"/>
			<point x="-54.5023193359" y="312.2930908203" type="qcurve" smooth="yes"/>
			<point x="-53.745300293" y="468.5485229492"/>
			<point x="222.5170898438" y="743.9260253906"/>
		</contour>
	</outline>
</glyph>
<glyph name="nine" format="2">
	<unicode hex="0039"/>
	<advance width="1089"/>
	<outline>
		<contour>
			<point x="92.0180053711" y="-64.2079467773" type="qcurve"/>
			<point x="52.0036010742" y="27.9237670898" type="line"/>
			<point x="337.0549926758" y="117.2085571289"/>
			<point x="840.2813720703" y="629.7413330078"/>
			<point x="849.0145874023" y="1054.5275878906" type="qcurve" smooth="yes"/>
			<point x="853.0544433594" y="1202.7700805664"/>
			<point x="718.7640991211" y="1404.7061767578"/>
			<point x="606.2209472656" y="1404.7061767578" type="qcurve" smooth="yes"/>
			<point x="496.8115234375" y="1404.7061767578"/>
			<point x="304.030090332" y="1184.4287719727"/>
			<point x="292.3187866211" y="951.339050293" type="qcurve" smooth="yes"/>
			<point x="284.5784912109" y="866.3635864258"/>
			<point x="340.0501098633" y="698.8621826172"/>
			<point x="486.6873168945" y="698.8621826172" type="qcurve" smooth="yes"/>
			<point x="502.096862793" y="698.8621826172"/>
			<point x="580.2644042969" y="730.6077880859"/>
			<point x="611.3189086914" y="756.5626220703" type="qcurve"/>
			<point x="627.5782470703" y="691.6897583008" type="line"/>
			<point x="602.7203369141" y="658.4260864258"/>
			<point x="474.6937866211" y="588.854675293"/>
			<point x="422.7479858398" y="587.854675293" type="qcurve" smooth="yes"/>
			<point x="259.0221557617" y="585.4791870117"/>
			<point x="94.5485839844" y="814.9813232422"/>
			<point x="100.2995605469" y="958.9587402344" type="qcurve" smooth="yes"/>
			<point x="107.6750488281" y="1202.9254760742"/>
			<point x="428.8790283203" y="1516.6955566406"/>
			<point x="635.7564086914" y="1516.6955566406" type="qcurve" smooth="yes"/>
			<point x="789.9854736328" y="1516.6955566406"/>
			<point x="1034.006652832" y="1253.0900878906"/>
			<point x="1026.6311645508" y="1019.8284301758" type="qcurve" smooth="yes"/>
			<point x="1016.2556762695" y="675.5172119141"/>
			<point x="470.6129760742" y="56.3479614258"/>
		</contour>
	</outline>
</glyph>
<glyph name="C" format="2">
	<unicode hex="0043"/>
	<advance width="1308"/>
	<outline>
		<contour>
			<point x="98.6453284318" y="839" type="qcurve" smooth="yes"/>
			<point x="175.3829382951" y="1151"/>
			<point x="640.46875" y="1553.1737670898"/>
			<point x="955.6993051205" y="1523" type="qcurve" smooth="yes"/>
			<point x="1038.9079589844" y="1516.3510742188"/>
			<point x="1155.6962890625" y="1474.3119506836"/>
			<point x="1211.3823242188" y="1448.5247802734" type="qcurve"/>
			<point x="1240.247253418" y="1434" type="line"/>
			<point x="1273.0251718197" y="1420" type="line"/>
			<point x="1218.2875619564" y="1109" type="line"/>
			<point x="1117.0849252377" y="1109" type="line"/>
			<point x="1122.4180551205" y="1239.3304443359" type="line"/>
			<point x="1085.7724862728" y="1321.6157836914"/>
			<point x="967.407312933" y="1397.6382446289"/>
			<point x="896.035425726" y="1400.3315429688" type="qcurve" smooth="yes"/>
			<point x="669.1171518002" y="1416.842956543"/>
			<point x="350.1562537248" y="1135"/>
			<point x="280.2230261857" y="842" type="qcurve" smooth="yes"/>
			<point x="199.0362586076" y="505"/>
			<point x="414.5398343465" y="147.7701416016"/>
			<point x="618.2063992879" y="113.4461669922" type="qcurve" smooth="yes"/>
			<point x="843.7485745809" y="76.4768066406"/>
			<point x="1077.6893347795" y="208.7788085938"/>
			<point x="1130.5316199357" y="331.4450683594" type="qcurve"/>
			<point x="1163.8652380998" y="315.2227783203" type="line"/>
			<point x="1187.0877722795" y="246.8884277344" type="line"/>
			<point x="1082.5966223771" y="60.2747802734"/>
			<point x="770.3371365926" y="-46.528503418"/>
			<point x="562.7239417131" y="-16" type="qcurve" smooth="yes"/>
			<point x="320.0909818074" y="22.5999755859"/>
			<point x="12.0986365373" y="490"/>
		</contour>
	</outline>
	<anchor name="bottom" x="596" y="0"/>
	<anchor name="top" x="906" y="1500"/>
</glyph>
<glyph name="E" format="2">
	<unicode hex="0045"/>
	<advance width="1158"/>
	<outline>
		<contour>
			<point x="-72.270690918" y="0" type="line"/>
			<point x="-52.4120483398" y="100.001953125" type="line"/>
			<point x="138.5208129883" y="130.001953125" type="line"/>
			<point x="276.6404418945" y="806" type="line"/>
			<point x="377.7200317383" y="1367.7177734375" type="line"/>
			<point x="180.5779418945" y="1393.7177734375" type="line"/>
			<point x="189.1643676758" y="1500" type="line"/>
			<point x="1145.6300048828" y="1500" type="line"/>
			<point x="1106.8519287109" y="1157.6651611328" type="line"/>
			<point x="1008.2495117188" y="1157.6651611328" type="line"/>
			<point x="991.6939697266" y="1387.6651611328" type="line"/>
			<point x="582.9506835938" y="1387.6651611328" type="line"/>
			<point x="547.9506835938" y="1367.6651611328" type="line"/>
			<point x="437.2843017578" y="794" type="line"/>
			<point x="308.7290039062" y="125.8902587891" type="line"/>
			<point x="320.1734619141" y="107.8902587891" type="line"/>
			<point x="814.5167236328" y="107.8902587891" type="line"/>
			<point x="920.072265625" y="377.8902587891" type="line"/>
			<point x="1020.0747070312" y="377.8902587891" type="line"/>
			<point x="943.0744628906" y="0" type="line"/>
		</contour>
		<contour>
			<point x="348.0866699219" y="762.7772216797" type="line"/>
			<point x="375.3936157227" y="853.0004882812" type="line"/>
			<point x="780.6936035156" y="862.0006103516" type="line"/>
			<point x="845.6936035156" y="1033.0006103516" type="line"/>
			<point x="943.6962890625" y="1033.0006103516" type="line"/>
			<point x="849.3626708984" y="557.2214355469" type="line"/>
			<point x="759.3602294922" y="557.2214355469" type="line"/>
			<point x="763.8046875" y="747.2214355469" type="line"/>
		</contour>
	</outline>
	<anchor name="bottom" x="518" y="0"/>
	<anchor name="ogonek" x="827" y="0"/>
	<anchor name="top" x="789" y="1500"/>
	<anchor name="tonos" x="81" y="1500"/>
</glyph>
<glyph name="F" format="2">
	<unicode hex="0046"/>
	<advance width="1065"/>
	<outline>
		<contour>
			<point x="-73.2229614258" y="0" type="line"/>
			<point x="-53.342590332" y="100.001953125" type="line"/>
			<point x="138.132019043" y="130.001953125" type="line"/>
			<point x="275.731628418" y="806" type="line"/>
			<point x="376.2911987305" y="1367.7177734375" type="line"/>
			<point x="179.8864135742" y="1393.7177734375" type="line"/>
			<point x="188.4511108398" y="1500" type="line"/>
			<point x="1142.4012451172" y="1500" type="line"/>
			<point x="1104.5120849609" y="1162.1097412109" type="line"/>
			<point x="1009.5098876953" y="1162.1097412109" type="line"/>
			<point x="992.9543457031" y="1392.1097412109" type="line"/>
			<point x="583.4774780273" y="1392.1097412109" type="line"/>
			<point x="548.4774780273" y="1372.1097412109" type="line"/>
			<point x="436.9221801758" y="794" type="line"/>
			<point x="309.3225708008" y="130.001953125" type="line"/>
			<point x="522.4524536133" y="100.001953125" type="line"/>
			<point x="504.5938110352" y="0" type="line"/>
		</contour>
		<contour>
			<point x="348.3734741211" y="750.5549316406" type="line"/>
			<point x="374.8270263672" y="848.7784423828" type="line"/>
			<point x="803.2878417969" y="856.4451904297" type="line"/>
			<point x="868.2878417969" y="1027.4451904297" type="line"/>
			<point x="962.2902832031" y="1027.4451904297" type="line"/>
			<point x="867.5122070312" y="548.9992675781" type="line"/>
			<point x="777.509765625" y="548.9992675781" type="line"/>
			<point x="781.509765625" y="738.9992675781" type="line"/>
		</contour>
	</outline>
	<anchor name="bottom" x="578" y="0"/>
	<anchor name="top" x="622" y="1500"/>
</glyph>
<glyph name="G" format="2">
	<unicode hex="0047"/>
	<advance width="1365"/>
	<outline>
		<contour>
			<point x="98.9653370059" y="839" type="qcurve" smooth="yes"/>
			<point x="175.9653370059" y="1151"/>
			<point x="628.4245277262" y="1542.6880493164"/>
			<point x="876.9527870036" y="1523" type="qcurve" smooth="yes"/>
			<point x="949.7112708903" y="1518"/>
			<point x="1123.7307411051" y="1473.8889160156"/>
			<point x="1173.4167762614" y="1448" type="qcurve" smooth="yes"/>
			<point x="1196.1152625895" y="1434" type="line"/>
			<point x="1227.2272621012" y="1420" type="line"/>
			<point x="1160.6713538981" y="1049.4426269531" type="line"/>
			<point x="1059.4687171793" y="1049.4426269531" type="line"/>
			<point x="1072.2687660075" y="1265.4649658203" type="line"/>
			<point x="1046.6327796793" y="1325.1314697266"/>
			<point x="886.9030433512" y="1393.2424316406"/>
			<point x="827.3005653239" y="1401.2204589844" type="qcurve" smooth="yes"/>
			<point x="656.991239152" y="1421.0492553711"/>
			<point x="353.9165699161" y="1135"/>
			<point x="283.2764942325" y="842" type="qcurve" smooth="yes"/>
			<point x="202.3740284122" y="505.4444580078"/>
			<point x="374.2762733317" y="150.4462890625"/>
			<point x="545.8827796793" y="115.2239990234" type="qcurve" smooth="yes"/>
			<point x="648.4762855387" y="92.890625"/>
			<point x="878.5247474528" y="149.8905029297"/>
			<point x="986.6001869059" y="229.1130371094" type="qcurve"/>
			<point x="1049.19943007" y="562.9580078125" type="line"/>
			<point x="863.5788246012" y="588.4780273438" type="line"/>
			<point x="873.6669593668" y="690" type="line"/>
			<point x="1374.7272010661" y="690" type="line"/>
			<point x="1361.5555702067" y="586.9580078125" type="line"/>
			<point x="1215.9366737223" y="561.9580078125" type="line"/>
			<point x="1146.1775184489" y="176.9221191406" type="line"/>
			<point x="1038.3304725504" y="117.9610595703" type="line"/>
			<point x="938.3887000895" y="43.1069946289"/>
			<point x="677.0332923747" y="-37"/>
			<point x="503.2277503825" y="-16" type="qcurve" smooth="yes"/>
			<point x="262.71114882" y="13"/>
			<point x="12.9653370059" y="490"/>
		</contour>
	</outline>
	<anchor name="bottom" x="667" y="0"/>
	<anchor name="top" x="907" y="1492"/>
</glyph>
<glyph name="K" format="2">
	<unicode hex="004B"/>
	<advance width="1113"/>
	<outline>
		<contour>
			<point x="-70.7474365234" y="0" type="line"/>
			<point x="-56.2845458984" y="100.001953125" type="line"/>
			<point x="140.0657958984" y="130.001953125" type="line"/>
			<point x="278.1854248047" y="806" type="line"/>
			<point x="378.7449951172" y="1367.7177734375" type="line"/>
			<point x="182.1446533203" y="1393.7177734375" type="line"/>
			<point x="190.6876220703" y="1500" type="line"/>
			<point x="761.3999023438" y="1500" type="line"/>
			<point x="745.8569335938" y="1393.7177734375" type="line"/>
			<point x="553.3090820312" y="1367.7177734375" type="line"/>
			<point x="439.4693603516" y="790" type="line"/>
			<point x="315.176574707" y="130.001953125" type="line"/>
			<point x="508.0830688477" y="100.001953125" type="line"/>
			<point x="498.6201782227" y="0" type="line"/>
		</contour>
		<contour>
			<point x="304.4238891602" y="536.5000610352" type="line"/>
			<point x="346.8657836914" y="711.4165649414" type="line"/>
			<point x="921.1318359375" y="1368.7177734375" type="line"/>
			<point x="788.6003417969" y="1390.7177734375" type="line"/>
			<point x="801.1433105469" y="1500" type="line"/>
			<point x="1260.9033203125" y="1500" type="line"/>
			<point x="1248.3603515625" y="1390.7177734375" type="line"/>
			<point x="1085.333984375" y="1368.7177734375" type="line"/>
		</contour>
		<contour>
			<point x="532.1146240234" y="853.8436279297" type="line"/>
			<point x="666.3739013672" y="982.9125366211" type="line"/>
			<point x="960.3480224609" y="130.001953125" type="line"/>
			<point x="1112.6026611328" y="103.001953125" type="line"/>
			<point x="1101.1397705078" y="0" type="line"/>
			<point x="593.0723876953" y="0" type="line"/>
			<point x="604.5352783203" y="103.001953125" type="line"/>
			<point x="783.6905517578" y="130.001953125" type="line"/>
		</contour>
	</outline>
	<anchor name="bottom" x="607" y="0"/>
	<anchor name="top" x="896" y="1500"/>
	<anchor name="kai_tail" x="1201" y="100"/>
</glyph>
<glyph name="L" format="2">
	<unicode hex="004C"/>
	<advance width="1076"/>
	<outline>
		<contour>
			<point x="-71.587097168" y="0" type="line"/>
			<point x="-56.5824584961" y="100.001953125" type="line"/>
			<point x="139.2478637695" y="130.001953125" type="line"/>
			<point x="277.3674926758" y="806" type="line"/>
			<point x="377.9270629883" y="1368.2377929688" type="line"/>
			<point x="181.6077270508" y="1394.2377929688" type="line"/>
			<point x="189.6306762695" y="1500" type="line"/>
			<point x="756.2331542969" y="1500" type="line"/>
			<point x="742.2102050781" y="1394.2377929688" type="line"/>
			<point x="548.6643066406" y="1368.2377929688" type="line"/>
			<point x="431.1047363281" y="754" type="line"/>
			<point x="311.9938964844" y="134.8902587891" type="line"/>
			<point x="335.9938964844" y="107.8902587891" type="line"/>
			<point x="770.0487060547" y="107.8902587891" type="line"/>
			<point x="918.0487060547" y="375.8902587891" type="line"/>
			<point x="1023.4514160156" y="375.8902587891" type="line"/>
			<point x="882.6729736328" y="0" type="line"/>
		</contour>
	</outline>
	<anchor name="bottom" x="535" y="0"/>
	<anchor name="centerright" x="755" y="750"/>
	<anchor name="top" x="878" y="1500"/>
	<anchor name="topright" x="804" y="1001"/>
	<anchor name="center" x="397" y="750"/>
	<anchor name="liga" x="1104" y="0"/>
</glyph>
<glyph name="M" format="2">
	<unicode hex="004D"/>
	<advance width="1872"/>
	<outline>
		<contour>
			<point x="-105.1360473633" y="0" type="line"/>
			<point x="-94.6731567383" y="100.001953125" type="line"/>
			<point x="114.6119995117" y="130.001953125" type="line"/>
			<point x="242.3563232422" y="753" type="line"/>
			<point x="359.8112182617" y="1367.7177734375" type="line"/>
			<point x="164.9515991211" y="1393.7177734375" type="line"/>
			<point x="176.4945678711" y="1500" type="line"/>
			<point x="646.6664428711" y="1500" type="line"/>
			<point x="733.8391113281" y="794.8590698242" type="line"/>
			<point x="799.5328979492" y="287.5031738281" type="line"/>
			<point x="804.8047485352" y="200.0816650391" type="line"/>
			<point x="808.8047485352" y="200.0816650391" type="line"/>
			<point x="852.1550292969" y="285.8630981445" type="line"/>
			<point x="1153.1607055664" y="841.1695556641" type="line"/>
			<point x="1491.1730957031" y="1498" type="line"/>
			<point x="1943.8673706055" y="1500" type="line"/>
			<point x="1925.9904174805" y="1393.7177734375" type="line"/>
			<point x="1735.4506225586" y="1367.7177734375" type="line"/>
			<point x="1620.5311279297" y="754" type="line"/>
			<point x="1498.1313476562" y="130.001953125" type="line"/>
			<point x="1693.1682128906" y="100.001953125" type="line"/>
			<point x="1684.7053222656" y="0" type="line"/>
			<point x="1102.3853149414" y="0" type="line"/>
			<point x="1110.8482055664" y="100.001953125" type="line"/>
			<point x="1330.3941040039" y="130.001953125" type="line"/>
			<point x="1459.4339599609" y="753" type="line"/>
			<point x="1556.6781616211" y="1285.1820068359" type="line"/>
			<point x="1584.3540649414" y="1434.6264648438" type="line"/>
			<point x="1580.3540649414" y="1435.6264648438" type="line"/>
			<point x="1497.5639648438" y="1283.4556884766" type="line"/>
			<point x="1232.4133300781" y="776.0020141602" type="line"/>
			<point x="805.7557983398" y="-7" type="line"/>
			<point x="673.6427612305" y="-7" type="line"/>
			<point x="580.0307006836" y="759.4494018555" type="line"/>
			<point x="509.2294311523" y="1286.7764282227" type="line"/>
			<point x="489.0663452148" y="1457.5555419922" type="line"/>
			<point x="485.0663452148" y="1455.6666259766" type="line"/>
			<point x="460.1649169922" y="1288.6666259766" type="line"/>
			<point x="350.9552612305" y="753" type="line"/>
			<point x="235.280090332" y="130.001953125" type="line"/>
			<point x="439.6040649414" y="100.001953125" type="line"/>
			<point x="426.7236938477" y="0" type="line"/>
		</contour>
	</outline>
	<anchor name="bottom" x="768" y="0"/>
	<anchor name="top" x="1048" y="1500"/>
</glyph>
<glyph name="Y" format="2">
	<unicode hex="0059"/>
	<advance width="1116"/>
	<outline>
		<contour>
			<point x="166.5220947266" y="0" type="line"/>
			<point x="174.9849853516" y="99.001953125" type="line"/>
			<point x="385.5308837891" y="130.001953125" type="line"/>
			<point x="483.0948486328" y="629.2216796875" type="line"/>
			<point x="341.1314086914" y="919.5863647461" type="line"/>
			<point x="135.6033935547" y="1367.7177734375" type="line"/>
			<point x="8.4527587891" y="1394.7177734375" type="line"/>
			<point x="19.9957275391" y="1500" type="line"/>
			<point x="522.2056274414" y="1500" type="line"/>
			<point x="510.6626586914" y="1394.7177734375" type="line"/>
			<point x="325.4251098633" y="1368.7177734375" type="line"/>
			<point x="466.0562744141" y="1048.6188964844" type="line"/>
			<point x="598.7984008789" y="773.6685180664" type="line"/>
			<point x="602.7984008789" y="773.6685180664" type="line"/>
			<point x="853.1740722656" y="1088.1514282227" type="line"/>
			<point x="1077.6458740234" y="1367.7177734375" type="line"/>
			<point x="904.7999267578" y="1394.7177734375" type="line"/>
			<point x="916.3428955078" y="1500" type="line"/>
			<point x="1378.8870239258" y="1500" type="line"/>
			<point x="1367.3440551758" y="1394.7177734375" type="line"/>
			<point x="1221.1934204102" y="1367.7177734375" type="line"/>
			<point x="927.9771118164" y="1012.3970947266" type="line"/>
			<point x="654.8252563477" y="680.8435058594" type="line"/>
			<point x="551.6280517578" y="130.001953125" type="line"/>
			<point x="748.7518310547" y="99.001953125" type="line"/>
			<point x="740.2889404297" y="0" type="line"/>
		</contour>
	</outline>
	<anchor name="bottom" x="443" y="0"/>
	<anchor name="top" x="731" y="1500"/>
	<anchor name="tonos" x="-13" y="1500"/>
	<anchor name="center" x="553" y="579"/>
</glyph>
<glyph name="a" format="2">
	<unicode hex="0061"/>
	<advance width="1055"/>
	<outline>
		<contour>
			<point x="12" y="228" type="qcurve" smooth="yes"/>
			<point x="15" y="528"/>
			<point x="442.4868930723" y="991"/>
			<point x="631.3124545958" y="991" type="qcurve" smooth="yes"/>
			<point x="675.1061557677" y="991"/>
			<point x="742.8394775391" y="977"/>
			<point x="764.2521972656" y="959" type="qcurve"/>
			<point x="829.7055053711" y="1015" type="line"/>
			<point x="879.7548828125" y="1015" type="line"/>
			<point x="924.8581088927" y="878" type="line"/>
			<point x="810.3600009825" y="367" type="line"/>
			<point x="780.3600009825" y="213" type="line"/>
			<point x="778.8520664122" y="145"/>
			<point x="784.2489169981" y="75"/>
			<point x="809.4394077208" y="14" type="qcurve"/>
			<point x="643.4240273229" y="-14" type="line"/>
			<point x="629.4355019323" y="36.0793457031"/>
			<point x="616.0859535924" y="117.140625"/>
			<point x="613.4201210729" y="172.5776367188" type="qcurve"/>
			<point x="519.4700478307" y="80.7597045898"/>
			<point x="325.7469032994" y="-10"/>
			<point x="236.5628212682" y="-10" type="qcurve" smooth="yes"/>
			<point x="122.4351357213" y="-10"/>
			<point x="11" y="113"/>
		</contour>
		<contour>
			<point x="185.2663574219" y="250" type="qcurve" smooth="yes"/>
			<point x="184.2663574219" y="149"/>
			<point x="244.9166416075" y="100.9508056641"/>
			<point x="289.0114902403" y="100.9508056641" type="qcurve" smooth="yes"/>
			<point x="388.0597080138" y="100.9508056641"/>
			<point x="634.0308383848" y="269.4624633789"/>
			<point x="671.7722328893" y="446.9508056641" type="qcurve" smooth="yes"/>
			<point x="745.1834262755" y="781.5388183594" type="line"/>
			<point x="745.9960327148" y="821.5388183594"/>
			<point x="666.7229770567" y="855.5388183594"/>
			<point x="593.5006870177" y="855.5388183594" type="qcurve" smooth="yes"/>
			<point x="427.5323032286" y="855.5388183594"/>
			<point x="188.2663574219" y="494"/>
		</contour>
	</outline>
	<anchor name="bottom" x="345" y="0"/>
	<anchor name="ogonek" x="732" y="0"/>
	<anchor name="top" x="608" y="1000"/>
</glyph>
<glyph name="b" format="2">
	<unicode hex="0062"/>
	<advance width="1082"/>
	<outline>
		<contour>
			<point x="28.1346332389" y="157" type="qcurve" smooth="yes"/>
			<point x="118.2501117545" y="633" type="line"/>
			<point x="256.2730609733" y="1402.9159545898" type="line"/>
			<point x="160.7004291373" y="1462.9159545898" type="line"/>
			<point x="190.0646869498" y="1537.2811889648" type="line"/>
			<point x="371.1360980826" y="1571.2811889648" type="line"/>
			<point x="450.8653461295" y="1496.782409668" type="line"/>
			<point x="274.0933734733" y="601" type="line"/>
			<point x="191.9778949576" y="148" type="line" smooth="yes"/>
			<point x="185.7548724967" y="109.400390625"/>
			<point x="237.7542621451" y="112.5343017578"/>
			<point x="246.6174213248" y="112.5343017578" type="qcurve" smooth="yes"/>
			<point x="489.0122577506" y="112.5343017578"/>
			<point x="798.274525817" y="422.9998779297"/>
			<point x="798.7824603873" y="680.7991943359" type="qcurve" smooth="yes"/>
			<point x="798.7824603873" y="785.5325927734"/>
			<point x="719.3124896842" y="886.6657714844"/>
			<point x="663.2648212272" y="886.6657714844" type="qcurve" smooth="yes"/>
			<point x="553.6165057975" y="886.6657714844"/>
			<point x="267.1465350944" y="674.6181030273"/>
			<point x="213.1091205436" y="590.3469848633" type="qcurve"/>
			<point x="249.6328021842" y="756.844543457" type="line"/>
			<point x="327.4854022819" y="834.7592163086"/>
			<point x="635.1097308951" y="1016"/>
			<point x="751.8275043326" y="1016" type="qcurve" smooth="yes"/>
			<point x="857.3131000358" y="1016"/>
			<point x="986.9847919303" y="887"/>
			<point x="986.7308246451" y="757" type="qcurve" smooth="yes"/>
			<point x="986.2228900748" y="427"/>
			<point x="558.167897399" y="-13"/>
			<point x="189.9189349967" y="-13" type="qcurve" smooth="yes"/>
			<point x="102.9379169303" y="-13"/>
			<point x="12.1346332389" y="77"/>
		</contour>
	</outline>
	<anchor name="bottom" x="571" y="0"/>
	<anchor name="top" x="571" y="1533"/>
</glyph>
<glyph name="c" format="2">
	<unicode hex="0063"/>
	<advance width="888"/>
	<outline>
		<contour>
			<point x="19" y="503" type="qcurve" smooth="yes"/>
			<point x="77" y="740"/>
			<point x="390.1290283203" y="1018"/>
			<point x="570.3206787109" y="1018" type="qcurve" smooth="yes"/>
			<point x="685.3739624023" y="1018"/>
			<point x="832.9274291992" y="911.9331054688"/>
			<point x="832.9274291992" y="811.3328857422" type="qcurve" smooth="yes"/>
			<point x="832.9274291992" y="724.0660400391"/>
			<point x="728.4159545898" y="622.7990722656"/>
			<point x="656.0043334961" y="607.9323730469" type="qcurve"/>
			<point x="621.4662475586" y="628.9323730469" type="line"/>
			<point x="631.4662475586" y="820.9323730469" type="line" smooth="yes"/>
			<point x="633.4662475586" y="850.9323730469"/>
			<point x="573.3232421875" y="893.9323730469"/>
			<point x="520.1834106445" y="893.9323730469" type="qcurve" smooth="yes"/>
			<point x="398.2308959961" y="893.9323730469"/>
			<point x="220.4022216797" y="660.8662109375"/>
			<point x="181.5356445312" y="497" type="qcurve" smooth="yes"/>
			<point x="140.6690673828" y="322.6004638672"/>
			<point x="218.5093994141" y="109.4010009766"/>
			<point x="375.6486206055" y="109.4010009766" type="qcurve" smooth="yes"/>
			<point x="483.1140136719" y="109.4010009766"/>
			<point x="692.9882202148" y="223.5340576172"/>
			<point x="741.2501831055" y="289.6669921875" type="qcurve"/>
			<point x="788.7045898438" y="239.1331787109" type="line"/>
			<point x="788.7045898438" y="196.599609375" type="line"/>
			<point x="735.4414672852" y="133.9333496094"/>
			<point x="459.5787963867" y="-17"/>
			<point x="299.1231689453" y="-17" type="qcurve" smooth="yes"/>
			<point x="95.9876708984" y="-17"/>
			<point x="-37" y="274"/>
		</contour>
	</outline>
	<anchor name="bottom" x="343" y="0"/>
	<anchor name="top" x="600" y="1000"/>
</glyph>
<glyph name="d" format="2">
	<unicode hex="0064"/>
	<advance width="1161"/>
	<outline>
		<contour>
			<point x="11.9929835302" y="231" type="qcurve" smooth="yes"/>
			<point x="17.7610132826" y="530"/>
			<point x="513.9700586928" y="988.3220825195"/>
			<point x="784.3269312514" y="1000" type="qcurve" smooth="yes"/>
			<point x="831.3484156264" y="1000" type="line"/>
			<point x="902.5378687514" y="1398.3635253906" type="line"/>
			<point x="799.760402931" y="1462.6591796875" type="line"/>
			<point x="829.1246607435" y="1537.0244140625" type="line"/>
			<point x="1012.5036890639" y="1571.0244140625" type="line"/>
			<point x="1097.4250757826" y="1534.0244140625" type="line"/>
			<point x="891.6147730482" y="469" type="line"/>
			<point x="829.8196070326" y="131.4792480469" type="line"/>
			<point x="931.1874048842" y="131.4792480469" type="line"/>
			<point x="930.1874048842" y="44" type="line"/>
			<point x="724.8860132826" y="-16" type="line"/>
			<point x="669.8481714857" y="100.8447265625" type="line"/>
			<point x="678.6380884779" y="166.7995605469" type="line"/>
			<point x="643.082668556" y="118.2668457031"/>
			<point x="311.0192530287" y="-10"/>
			<point x="235.8899805678" y="-10" type="qcurve" smooth="yes"/>
			<point x="117.8399927748" y="-10"/>
			<point x="9.739016245" y="122"/>
		</contour>
		<contour>
			<point x="185.2593409521" y="250" type="qcurve" smooth="yes"/>
			<point x="184.0115015639" y="179.3338623047"/>
			<point x="255.6984522474" y="104.1341552734"/>
			<point x="319.4786646498" y="104.1341552734" type="qcurve" smooth="yes"/>
			<point x="432.816250099" y="104.1341552734"/>
			<point x="693.7253077162" y="247.9337158203"/>
			<point x="730.161159767" y="443.6007080078" type="qcurve" smooth="yes"/>
			<point x="798.0941431654" y="792.5322265625" type="line"/>
			<point x="803.0941431654" y="826.5322265625"/>
			<point x="733.3676417006" y="866.0655517578"/>
			<point x="676.5120508803" y="866.0655517578" type="qcurve" smooth="yes"/>
			<point x="466.6913721693" y="866.0655517578"/>
			<point x="188.7672755224" y="473.4663085938"/>
		</contour>
	</outline>
	<anchor name="bottom" x="604" y="0"/>
	<anchor name="center" x="876" y="1202"/>
	<anchor name="top" x="704" y="1534"/>
	<anchor name="topright" x="1076" y="1000"/>
	<anchor name="liga" x="1067" y="0"/>
</glyph>
<glyph name="e" format="2">
	<unicode hex="0065"/>
	<advance width="958"/>
	<outline>
		<contour>
			<point x="15.151184082" y="485" type="qcurve" smooth="yes"/>
			<point x="67.151184082" y="728"/>
			<point x="402.6234130859" y="1018"/>
			<point x="581.4146118164" y="1018" type="qcurve" smooth="yes"/>
			<point x="722.1301879883" y="1018"/>
			<point x="857.7846069336" y="903.0065307617"/>
			<point x="866.6270141602" y="832.5927124023" type="qcurve" smooth="yes"/>
			<point x="876.1409912109" y="773.5379638672"/>
			<point x="857.9231567383" y="669"/>
			<point x="847.415222168" y="620" type="qcurve"/>
			<point x="884.415222168" y="611" type="line"/>
			<point x="849.481628418" y="522.5325927734" type="line"/>
			<point x="774.481628418" y="524.5325927734"/>
			<point x="585.0891113281" y="524.5325927734"/>
			<point x="518.3430786133" y="524.5325927734" type="qcurve" smooth="yes"/>
			<point x="102.9263305664" y="522.5325927734" type="line"/>
			<point x="139.7649536133" y="618" type="line"/>
			<point x="667.0344238281" y="626" type="line"/>
			<point x="673.6280517578" y="649.9998779297"/>
			<point x="698.8772583008" y="767.9915161133"/>
			<point x="685.3787841797" y="826.2199707031" type="qcurve" smooth="yes"/>
			<point x="677.0064086914" y="852.9351806641"/>
			<point x="624.2053833008" y="895.4656982422"/>
			<point x="575.2702636719" y="895.4656982422" type="qcurve" smooth="yes"/>
			<point x="426.0983886719" y="895.4656982422"/>
			<point x="217.9943237305" y="658.7994384766"/>
			<point x="182.6610717773" y="500.7331542969" type="qcurve" smooth="yes"/>
			<point x="140.3278198242" y="315.1335449219"/>
			<point x="262.7314453125" y="115.4676513672"/>
			<point x="371.0628662109" y="111.8676757812" type="qcurve" smooth="yes"/>
			<point x="523.8869018555" y="105.4598999023"/>
			<point x="697.9730224609" y="189.8698730469"/>
			<point x="774.2819824219" y="279.3876342773" type="qcurve"/>
			<point x="813.3362426758" y="230.3332519531" type="line"/>
			<point x="833.6697387695" y="204.9869995117" type="line"/>
			<point x="746.0922851562" y="108.4284057617"/>
			<point x="508.2125854492" y="-22.4077758789"/>
			<point x="319.9454956055" y="-15" type="qcurve" smooth="yes"/>
			<point x="154.8762207031" y="-8.2874755859"/>
			<point x="-29.848815918" y="274"/>
		</contour>
	</outline>
	<anchor name="bottom" x="339" y="0"/>
	<anchor name="ogonek" x="495" y="0"/>
	<anchor name="top" x="601" y="1000"/>
</glyph>
<glyph name="f" format="2">
	<unicode hex="0066"/>
	<advance width="550"/>
	<outline>
		<contour>
			<point x="-368.1399536133" y="-415" type="line" smooth="yes"/>
			<point x="-355.1215209961" y="-287.4881591797" type="line"/>
			<point x="-270.5392456055" y="-287.1925048828" type="line" smooth="yes"/>
			<point x="-152.5392456055" y="-287.6295166016"/>
			<point x="-18.471496582" y="-184.5207519531"/>
			<point x="37.528503418" y="117.4792480469" type="qcurve" smooth="yes"/>
			<point x="181.0811157227" y="899.8664550781" type="line"/>
			<point x="189.4144897461" y="942" type="line"/>
			<point x="247.9409179688" y="1225.3482666016" type="line" smooth="yes"/>
			<point x="284.1976928711" y="1401.6050415039"/>
			<point x="453.8216552734" y="1538.3482666016"/>
			<point x="553.1788330078" y="1538.3482666016" type="qcurve" smooth="yes"/>
			<point x="622.7794189453" y="1538.3482666016"/>
			<point x="701.0989990234" y="1486.3482666016"/>
			<point x="701.0989990234" y="1450.3482666016" type="qcurve" smooth="yes"/>
			<point x="701.0989990234" y="1424.3482666016"/>
			<point x="672.0989990234" y="1385.3482666016"/>
			<point x="654.0989990234" y="1385.3482666016" type="qcurve" smooth="yes"/>
			<point x="644.0989990234" y="1385.3482666016"/>
			<point x="639.0989990234" y="1398.3482666016"/>
			<point x="640.0989990234" y="1409.3482666016" type="qcurve" smooth="yes"/>
			<point x="641.0989990234" y="1387.2808837891"/>
			<point x="592.0349121094" y="1398.4139404297"/>
			<point x="561.2885742188" y="1398.4139404297" type="qcurve" smooth="yes"/>
			<point x="501.6960449219" y="1398.4139404297"/>
			<point x="400.0531616211" y="1284.5241699219"/>
			<point x="380.1944580078" y="1161.947265625" type="qcurve" smooth="yes"/>
			<point x="345.3348999023" y="938" type="line"/>
			<point x="345.352722168" y="911.5998535156" type="line"/>
			<point x="213.3348999023" y="214" type="line" smooth="yes"/>
			<point x="132.0272827148" y="-210"/>
			<point x="-40.0857543945" y="-447"/>
			<point x="-236.8533325195" y="-447" type="qcurve"/>
		</contour>
		<contour>
			<point x="-0.2194213867" y="875.0661621094" type="line"/>
			<point x="-9.0194702148" y="940.8000488281" type="line"/>
			<point x="201.8811645508" y="982.8000488281" type="line"/>
			<point x="561.2002563477" y="982.8000488281" type="line"/>
			<point x="548.4002075195" y="876.0661621094" type="line"/>
			<point x="300.1432495117" y="883.0661621094" type="line"/>
			<point x="216.9909057617" y="865.0661621094" type="line"/>
		</contour>
	</outline>
	<anchor name="bottom" x="217" y="0"/>
	<anchor name="top" x="554" y="1536"/>
</glyph>
<glyph name="g" format="2">
	<unicode hex="0067"/>
	<advance width="1079"/>
	<outline>
		<contour>
			<point x="16.9969401532" y="248" type="qcurve" smooth="yes"/>
			<point x="20.5048747235" y="548"/>
			<point x="435.2473063641" y="991"/>
			<point x="665.0449748212" y="991" type="qcurve" smooth="yes"/>
			<point x="708.9725260907" y="991"/>
			<point x="749.1376261883" y="977"/>
			<point x="767.5332560712" y="959" type="qcurve"/>
			<point x="822.9941935712" y="1015" type="line"/>
			<point x="883.8010783368" y="1015" type="line"/>
			<point x="942.1072306805" y="878" type="line"/>
			<point x="890.1072306805" y="646" type="line" smooth="yes"/>
			<point x="846.1072306805" y="450"/>
			<point x="787.1072306805" y="153"/>
			<point x="766.1072306805" y="53" type="qcurve" smooth="yes"/>
			<point x="704.6841349774" y="-240"/>
			<point x="356.0112223798" y="-464"/>
			<point x="187.704276579" y="-464" type="qcurve"/>
			<point x="51.7041545087" y="-424" type="line"/>
			<point x="55.6354289227" y="-323.8237915039" type="line"/>
			<point x="225.6510539227" y="-310.3233032227" type="line" smooth="yes"/>
			<point x="372.0308757001" y="-299.055480957"/>
			<point x="560.9390177899" y="-138.0551757812"/>
			<point x="607.1699748212" y="78.0241699219" type="qcurve" smooth="yes"/>
			<point x="625.4774089032" y="165.3276977539" type="line"/>
			<point x="571.1392741376" y="115"/>
			<point x="328.8264689618" y="10"/>
			<point x="231.4768595868" y="10" type="qcurve" smooth="yes"/>
			<point x="135.5565104657" y="10"/>
			<point x="15.742972868" y="133"/>
		</contour>
		<contour>
			<point x="189.6863932782" y="270" type="qcurve" smooth="yes"/>
			<point x="188.432425993" y="169"/>
			<point x="241.585135954" y="133.6477050781"/>
			<point x="309.347648161" y="133.6477050781" type="qcurve" smooth="yes"/>
			<point x="406.3057170087" y="133.6477050781"/>
			<point x="637.3641276532" y="246"/>
			<point x="675.5332560712" y="423" type="qcurve" smooth="yes"/>
			<point x="754.8363566571" y="782.0271606445" type="line"/>
			<point x="769.9050212079" y="821.0504760742"/>
			<point x="685.8117594891" y="856.0271606445"/>
			<point x="602.5938639813" y="856.0271606445" type="qcurve" smooth="yes"/>
			<point x="415.3741374188" y="856.0271606445"/>
			<point x="192.9403605633" y="514"/>
		</contour>
	</outline>
	<anchor name="bottom" x="324" y="-416"/>
	<anchor name="top" x="603" y="1000"/>
</glyph>
<glyph name="h" format="2">
	<unicode hex="0068"/>
	<advance width="1169"/>
	<outline>
		<contour>
			<point x="44.5150146484" y="-24.1538085938" type="line"/>
			<point x="8.9381103516" y="56" type="line"/>
			<point x="120.3223876953" y="527" type="line"/>
			<point x="287.4505615234" y="1401.6320800781" type="line"/>
			<point x="185.1958007812" y="1461.6320800781" type="line"/>
			<point x="214.5600585938" y="1535.9973144531" type="line"/>
			<point x="397.9390869141" y="1569.9973144531" type="line"/>
			<point x="478.2452392578" y="1496.0754394531" type="line"/>
			<point x="294.5887451172" y="588" type="line"/>
			<point x="196.6270751953" y="94.3071289062" type="line"/>
			<point x="228.2811279297" y="5.5380859375" type="line"/>
		</contour>
		<contour>
			<point x="695.5316162109" y="-14" type="line"/>
			<point x="654.5316162109" y="75" type="line"/>
			<point x="788.5030517578" y="699.1245117188" type="line" smooth="yes"/>
			<point x="808.3862304688" y="792.4948730469"/>
			<point x="751.8790283203" y="890.3323974609"/>
			<point x="665.5197753906" y="890.3323974609" type="qcurve" smooth="yes"/>
			<point x="584.7955322266" y="890.3323974609"/>
			<point x="307.943359375" y="678.7093505859"/>
			<point x="246.43359375" y="604.7994384766" type="qcurve"/>
			<point x="245.2312011719" y="712.4005126953" type="line"/>
			<point x="308.5593261719" y="807.6378173828"/>
			<point x="619.0222167969" y="1021"/>
			<point x="728.5128173828" y="1021" type="qcurve" smooth="yes"/>
			<point x="846.2508544922" y="1021"/>
			<point x="999.9075927734" y="882.5446777344"/>
			<point x="968.5426025391" y="743.1811523438" type="qcurve" smooth="yes"/>
			<point x="828.1812744141" y="134.001953125" type="line"/>
			<point x="960.6398925781" y="134.001953125" type="line"/>
			<point x="960.6398925781" y="46" type="line"/>
		</contour>
	</outline>
	<anchor name="bottom" x="420" y="0"/>
	<anchor name="center" x="347" y="1202"/>
	<anchor name="top" x="424" y="1534"/>
</glyph>
<glyph name="k" format="2">
	<unicode hex="006B"/>
	<advance width="1011"/>
	<outline>
		<contour>
			<point x="501.2419433594" y="478.0981445312" type="line"/>
			<point x="144.0467529297" y="166.841796875" type="line"/>
			<point x="123.6931152344" y="260.4426269531" type="line"/>
			<point x="711.1934814453" y="754.4548339844" type="line"/>
			<point x="722.7139892578" y="816.1630859375"/>
			<point x="661.3234863281" y="896.5993652344"/>
			<point x="627.2723388672" y="896.5993652344" type="qcurve" smooth="yes"/>
			<point x="536.8276367188" y="896.5993652344"/>
			<point x="346.8410644531" y="712.0876464844"/>
			<point x="299.6809082031" y="610.1988525391" type="qcurve"/>
			<point x="298.4732666016" y="623.1911621094" type="line"/>
			<point x="205.8575439453" y="93.7302246094" type="line"/>
			<point x="237.5115966797" y="8.9995117188" type="line"/>
			<point x="54.3223876953" y="-23" type="line"/>
			<point x="19.3223876953" y="56" type="line"/>
			<point x="120.3223876953" y="527" type="line"/>
			<point x="286.9732666016" y="1397.4089355469" type="line"/>
			<point x="147.7684326172" y="1462.6591796875" type="line"/>
			<point x="177.1326904297" y="1537.0244140625" type="line"/>
			<point x="396.2083740234" y="1571.0244140625" type="line"/>
			<point x="476.5145263672" y="1495.9487304688" type="line"/>
			<point x="338.6989746094" y="812.1763916016" type="line"/>
			<point x="398.3680419922" y="878.3073730469"/>
			<point x="568.3824462891" y="1011"/>
			<point x="660.8851318359" y="1011" type="qcurve" smooth="yes"/>
			<point x="735.6618652344" y="1011"/>
			<point x="850.5203857422" y="911.1402587891"/>
			<point x="851.9455566406" y="835.8043212891" type="qcurve" smooth="yes"/>
			<point x="863.1965332031" y="731.4438476562" type="line"/>
			<point x="852.8836669922" y="711.310546875" type="line"/>
			<point x="515.5974121094" y="490.0928955078" type="line"/>
		</contour>
		<contour>
			<point x="559.6970214844" y="576.0769042969" type="line"/>
			<point x="807.8674316406" y="158.078125" type="line"/>
			<point x="950.2139892578" y="158.078125" type="line"/>
			<point x="950.2139892578" y="68.076171875" type="line"/>
			<point x="730.8024902344" y="-6" type="line" smooth="yes"/>
			<point x="713.8347167969" y="-12.6163330078"/>
			<point x="687.8272705078" y="10.3076171875"/>
			<point x="632.3253173828" y="115" type="qcurve" smooth="yes"/>
			<point x="427.7225341797" y="476.1611328125" type="line"/>
		</contour>
	</outline>
	<anchor name="bottom" x="448" y="0"/>
	<anchor name="top" x="578" y="1534"/>
</glyph>
<glyph name="m" format="2">
	<unicode hex="006D"/>
	<advance width="1776"/>
	<outline>
		<contour>
			<point x="67.9191894531" y="-37.9995117188" type="line"/>
			<point x="27.1501464844" y="37.5390625" type="line"/>
			<point x="142.7653808594" y="527" type="line"/>
			<point x="188.927734375" y="828.7023925781" type="line"/>
			<point x="55.4691162109" y="824.7023925781" type="line"/>
			<point x="59.4237060547" y="915" type="line"/>
			<point x="257.5339355469" y="1000" type="line"/>
			<point x="323.7255859375" y="1000" type="line"/>
			<point x="347.7604980469" y="737.0693359375" type="line"/>
			<point x="319.9162597656" y="588" type="line"/>
			<point x="207.9162597656" y="77" type="line"/>
			<point x="245.9162597656" y="-6" type="line"/>
		</contour>
		<contour>
			<point x="677.8276367188" y="-12.4230957031" type="line"/>
			<point x="647.8276367188" y="57.5769042969" type="line"/>
			<point x="785.2841796875" y="684.9954833984" type="line" smooth="yes"/>
			<point x="805.544921875" y="779.2100830078"/>
			<point x="748.5473632812" y="889.8657226562"/>
			<point x="682.2124023438" y="889.8657226562" type="qcurve" smooth="yes"/>
			<point x="590.1751708984" y="889.8657226562"/>
			<point x="326.3449707031" y="675.3386230469"/>
			<point x="268.6510009766" y="627.6665039062" type="qcurve"/>
			<point x="264.7845458984" y="729.6674804688" type="line"/>
			<point x="332.4904785156" y="822.4467773438"/>
			<point x="645.0153808594" y="1021"/>
			<point x="746.6049804688" y="1021" type="qcurve" smooth="yes"/>
			<point x="859.7565917969" y="1021"/>
			<point x="999.1125488281" y="877.4091796875"/>
			<point x="964.6708984375" y="742.5769042969" type="qcurve" smooth="yes"/>
			<point x="828.2861328125" y="133.1528320312" type="line"/>
			<point x="874.82421875" y="21.3071289062" type="line"/>
		</contour>
		<contour>
			<point x="1332.1337890625" y="-21.4997558594" type="line"/>
			<point x="1269.7883300781" y="115.3833007812" type="line"/>
			<point x="1398.2065429688" y="704.0333251953" type="line" smooth="yes"/>
			<point x="1414.2038574219" y="778.0845947266"/>
			<point x="1350.8181152344" y="889.8657226562"/>
			<point x="1273.5642089844" y="889.8657226562" type="qcurve" smooth="yes"/>
			<point x="1183.6094970703" y="889.8657226562"/>
			<point x="942.9399414062" y="687.4536132812"/>
			<point x="884.5799560547" y="627.5562744141" type="qcurve"/>
			<point x="875.0289306641" y="733.4008789062" type="line"/>
			<point x="944.5124511719" y="824.1774902344"/>
			<point x="1228.6423339844" y="1021"/>
			<point x="1342.3046875" y="1021" type="qcurve" smooth="yes"/>
			<point x="1454.2602539062" y="1021"/>
			<point x="1605.5285644531" y="873.7906494141"/>
			<point x="1575.1318359375" y="742" type="qcurve" smooth="yes"/>
			<point x="1435.361328125" y="134.001953125" type="line"/>
			<point x="1567.8199462891" y="134.001953125" type="line"/>
			<point x="1567.8199462891" y="46" type="line"/>
		</contour>
	</outline>
	<anchor name="bottom" x="958" y="0"/>
	<anchor name="top" x="958" y="1000"/>
	<anchor name="cy_descender" x="1572" y="134"/>
</glyph>
<glyph name="n" format="2">
	<unicode hex="006E"/>
	<advance width="1163"/>
	<outline>
		<contour>
			<point x="63.6696777344" y="-23" type="line"/>
			<point x="28.6696777344" y="50.6533203125" type="line"/>
			<point x="136.9963378906" y="527" type="line"/>
			<point x="188.927734375" y="828.7023925781" type="line"/>
			<point x="55.4691162109" y="824.7023925781" type="line"/>
			<point x="59.4237060547" y="915" type="line"/>
			<point x="246.5727539062" y="997.3266601562" type="line"/>
			<point x="317.9565429688" y="997.3266601562" type="line"/>
			<point x="339.9934082031" y="736" type="line"/>
			<point x="312.9934082031" y="588" type="line"/>
			<point x="203.6667480469" y="67.6433105469" type="line"/>
			<point x="230.9733886719" y="-7.3366699219" type="line"/>
		</contour>
		<contour>
			<point x="699.3071289062" y="-11.0593261719" type="line"/>
			<point x="669.0004882812" y="75" type="line"/>
			<point x="805.4603271484" y="727.4659423828" type="line" smooth="yes"/>
			<point x="821.1058349609" y="802.5417480469"/>
			<point x="746.1701660156" y="878.7943115234"/>
			<point x="672.4884033203" y="878.7943115234" type="qcurve" smooth="yes"/>
			<point x="575.6556396484" y="878.7943115234"/>
			<point x="292.8973388672" y="651.7545166016"/>
			<point x="253.6514892578" y="558.4431152344" type="qcurve"/>
			<point x="245.9671630859" y="662.8876953125" type="line"/>
			<point x="280.6241455078" y="772.6717529297"/>
			<point x="627.2904052734" y="1021"/>
			<point x="748.4829101562" y="1021" type="qcurve" smooth="yes"/>
			<point x="870.4565429688" y="1021"/>
			<point x="1008.7341308594" y="874.3552246094"/>
			<point x="985.5864257812" y="773.2780761719" type="qcurve" smooth="yes"/>
			<point x="840.5537109375" y="134.001953125" type="line"/>
			<point x="971.2816162109" y="134.001953125" type="line"/>
			<point x="971.2816162109" y="46" type="line"/>
		</contour>
	</outline>
	<anchor name="bottom" x="522" y="0"/>
	<anchor name="top" x="602" y="1000"/>
	<anchor name="liga" x="1173" y="0"/>
</glyph>
<glyph name="o" format="2">
	<unicode hex="006F"/>
	<advance width="1056"/>
	<outline>
		<contour>
			<point x="11.0314675071" y="531" type="qcurve" smooth="yes"/>
			<point x="57" y="762.0158691406"/>
			<point x="373.2554321289" y="1030"/>
			<point x="577.4434814453" y="1016" type="qcurve" smooth="yes"/>
			<point x="787.1498413086" y="1001.7460327148"/>
			<point x="970.1715698242" y="703"/>
			<point x="920.3721657493" y="475" type="qcurve" smooth="yes"/>
			<point x="874.5787963867" y="259.9841308594"/>
			<point x="562.2073364258" y="-30"/>
			<point x="356.1884155273" y="-16" type="qcurve" smooth="yes"/>
			<point x="146.6670532227" y="-1.7460327148"/>
			<point x="-35.1849975586" y="300"/>
		</contour>
		<contour>
			<point x="188.2259255149" y="555.3333740234" type="qcurve" smooth="yes"/>
			<point x="143.3380718517" y="368.6230077735"/>
			<point x="224.3398171165" y="103.9445800781"/>
			<point x="375.9057350852" y="93.3341064453" type="qcurve" smooth="yes"/>
			<point x="541.9589577415" y="82.3341064453"/>
			<point x="716.8050382809" y="339.7790791764"/>
			<point x="746.2265358665" y="482.0794067383" type="qcurve" smooth="yes"/>
			<point x="780.5071349831" y="642.9011305957"/>
			<point x="709.7892800071" y="893.8658447266"/>
			<point x="553.1720925071" y="906.8658447266" type="qcurve" smooth="yes"/>
			<point x="412.2214089133" y="918.8658447266"/>
			<point x="224.6068279949" y="706.0322692833"/>
		</contour>
	</outline>
	<anchor name="bottom" x="358" y="0"/>
	<anchor name="center" x="461" y="500"/>
	<anchor name="ogonek" x="514" y="0"/>
	<anchor name="top" x="584" y="1000"/>
	<anchor name="topright" x="663" y="1000"/>
	<anchor name="GRKtop" x="584" y="1000"/>
	<anchor name="yu_dash" x="83" y="498"/>
</glyph>
<glyph name="p" format="2">
	<unicode hex="0070"/>
	<advance width="1041"/>
	<outline>
		<contour>
			<point x="-56.5798339844" y="-392" type="line"/>
			<point x="141.8815917969" y="576" type="line"/>
			<point x="169.2663574219" y="728.7700195312" type="line"/>
			<point x="126.1125488281" y="952.4240722656" type="line"/>
			<point x="238.4182128906" y="1016" type="line"/>
			<point x="293.2250976562" y="1016" type="line"/>
			<point x="324.4304199219" y="802.0956420898" type="line"/>
			<point x="400.000793457" y="871.3334960938"/>
			<point x="630.0853881836" y="1016"/>
			<point x="731.1232299805" y="1016" type="qcurve" smooth="yes"/>
			<point x="834.4797363281" y="1016"/>
			<point x="946.7879638672" y="887"/>
			<point x="946.2800292969" y="757" type="qcurve" smooth="yes"/>
			<point x="945.7720947266" y="427"/>
			<point x="537.7947387695" y="30"/>
			<point x="329.7319946289" y="30" type="qcurve" smooth="yes"/>
			<point x="294.3192749023" y="30"/>
			<point x="213.2081298828" y="41"/>
			<point x="195.763671875" y="51" type="qcurve"/>
			<point x="119.7692871094" y="-336.9780273438" type="line"/>
			<point x="262.5467529297" y="-379.3645019531" type="line"/>
			<point x="234.1824951172" y="-459.7297363281" type="line"/>
			<point x="77.1494140625" y="-499.4987792969" type="line"/>
		</contour>
		<contour>
			<point x="228.1638183594" y="232.3341064453" type="line"/>
			<point x="219.751159668" y="181.1342773438"/>
			<point x="324.9607543945" y="152.6677246094"/>
			<point x="360.795715332" y="152.6677246094" type="qcurve" smooth="yes"/>
			<point x="504.0657958984" y="152.6677246094"/>
			<point x="758.5108642578" y="456.8665771484"/>
			<point x="759.0187988281" y="693.3994140625" type="qcurve" smooth="yes"/>
			<point x="759.5267333984" y="782.7325439453"/>
			<point x="705.1384887695" y="886.1990966797"/>
			<point x="648.0781860352" y="886.1990966797" type="qcurve" smooth="yes"/>
			<point x="546.7604980469" y="886.1990966797"/>
			<point x="357.4332885742" y="739.9991455078"/>
			<point x="310.6968994141" y="668.7327880859" type="qcurve"/>
			<point x="291.763671875" y="575" type="line"/>
		</contour>
	</outline>
	<anchor name="bottom" x="599" y="0"/>
	<anchor name="top" x="599" y="1000"/>
</glyph>
<glyph name="q" format="2">
	<unicode hex="0071"/>
	<advance width="1045"/>
	<outline>
		<contour>
			<point x="17" y="248" type="qcurve" smooth="yes"/>
			<point x="20" y="548"/>
			<point x="391.337097168" y="991"/>
			<point x="611.939453125" y="991" type="qcurve" smooth="yes"/>
			<point x="658.0188598633" y="991"/>
			<point x="718.8919677734" y="977"/>
			<point x="743.0983276367" y="959" type="qcurve"/>
			<point x="795.4897460938" y="1015" type="line"/>
			<point x="847.0661621094" y="1015" type="line"/>
			<point x="894.4111328125" y="797.8103027344" type="line"/>
			<point x="817.1413574219" y="452" type="line"/>
			<point x="656.7326660156" y="-305.7255859375" type="line"/>
			<point x="778.0782470703" y="-347.634765625" type="line"/>
			<point x="749.7139892578" y="-428" type="line"/>
			<point x="614.9885253906" y="-474.6918945312" type="line"/>
			<point x="480.10546875" y="-367.1931152344" type="line"/>
			<point x="610.9516601562" y="196" type="line"/>
			<point x="608.9516601562" y="197" type="line"/>
			<point x="526.0845336914" y="112"/>
			<point x="335.6452636719" y="10"/>
			<point x="245.0753173828" y="10" type="qcurve" smooth="yes"/>
			<point x="132.4024658203" y="10"/>
			<point x="16" y="133"/>
		</contour>
		<contour>
			<point x="192.5739746094" y="270" type="qcurve" smooth="yes"/>
			<point x="191.5739746094" y="190.0003662109"/>
			<point x="257.5486450195" y="127.8675537109"/>
			<point x="323.9233398438" y="127.8675537109" type="qcurve" smooth="yes"/>
			<point x="406.621887207" y="127.8675537109"/>
			<point x="619.8603515625" y="269.3337402344"/>
			<point x="650.3364257812" y="423" type="qcurve" smooth="yes"/>
			<point x="731.1362304688" y="787.1989746094" type="line"/>
			<point x="728.3901977539" y="827.1989746094"/>
			<point x="639.723449707" y="861.1989746094"/>
			<point x="570.8186035156" y="861.1989746094" type="qcurve" smooth="yes"/>
			<point x="423.1899414062" y="861.1989746094"/>
			<point x="195.5739746094" y="489.2662353516"/>
		</contour>
	</outline>
	<anchor name="bottom" x="594" y="0"/>
	<anchor name="top" x="594" y="1000"/>
</glyph>
<glyph name="r" format="2">
	<unicode hex="0072"/>
	<advance width="776"/>
	<outline>
		<contour>
			<point x="74.2058105469" y="-14" type="line"/>
			<point x="33.2058105469" y="75" type="line"/>
			<point x="149.1669921875" y="527" type="line"/>
			<point x="190.1372070312" y="828.2250976562" type="line"/>
			<point x="56.6785888672" y="824.7023925781" type="line"/>
			<point x="60.6331787109" y="915" type="line"/>
			<point x="291.0500488281" y="1000" type="line"/>
			<point x="337.0500488281" y="1000" type="line"/>
			<point x="325.5354003906" y="765.7888793945" type="line"/>
			<point x="319.9719238281" y="588" type="line"/>
			<point x="216.0859375" y="132.0927734375" type="line"/>
			<point x="338.5445556641" y="124.001953125" type="line"/>
			<point x="338.5445556641" y="36" type="line"/>
		</contour>
		<contour>
			<point x="615.9345703125" y="718" type="line"/>
			<point x="633.9345703125" y="872.0038452148" type="line"/>
			<point x="533.1335449219" y="872.0038452148"/>
			<point x="365.1198120117" y="789.6735839844"/>
			<point x="257.0123291016" y="639.1943969727" type="qcurve"/>
			<point x="261.3480224609" y="762.6162109375" type="line"/>
			<point x="281.8479614258" y="796.8665771484"/>
			<point x="528.9995117188" y="1012"/>
			<point x="640.3129882812" y="1012" type="qcurve" smooth="yes"/>
			<point x="710.9650878906" y="1012"/>
			<point x="765.4721679688" y="966.7307128906"/>
			<point x="765.4721679688" y="917" type="qcurve" smooth="yes"/>
			<point x="765.4721679688" y="833"/>
			<point x="690.3188476562" y="718"/>
			<point x="643.9345703125" y="718" type="qcurve" smooth="yes"/>
		</contour>
	</outline>
	<anchor name="bottom" x="282" y="0"/>
	<anchor name="top" x="486" y="1000"/>
</glyph>
<glyph name="s" format="2">
	<unicode hex="0073"/>
	<advance width="837"/>
	<outline>
		<contour>
			<point x="-17.8506469727" y="170" type="qcurve" smooth="yes"/>
			<point x="-17.8506469727" y="250"/>
			<point x="92.1862182617" y="310"/>
			<point x="155.4928588867" y="310" type="qcurve" smooth="yes"/>
			<point x="183.0309448242" y="310" type="line"/>
			<point x="183.0309448242" y="135" type="line" smooth="yes"/>
			<point x="183.0309448242" y="115.3471679688"/>
			<point x="249.4301757812" y="89.7642822266"/>
			<point x="311.23828125" y="89.7642822266" type="qcurve" smooth="yes"/>
			<point x="399.9892578125" y="89.7642822266"/>
			<point x="523.2753295898" y="193.5382080078"/>
			<point x="523.2753295898" y="246.7440185547" type="qcurve" smooth="yes"/>
			<point x="523.2753295898" y="299.0521240234"/>
			<point x="457.0416870117" y="387.1745605469"/>
			<point x="321.8869018555" y="469.9462890625" type="qcurve" smooth="yes"/>
			<point x="211.8009643555" y="547.5827636719"/>
			<point x="105.4845581055" y="676.8850097656"/>
			<point x="107.0614624023" y="764.4619140625" type="qcurve" smooth="yes"/>
			<point x="108.6383666992" y="866.5773925781"/>
			<point x="292.795715332" y="1015"/>
			<point x="464.1244506836" y="1015" type="qcurve" smooth="yes"/>
			<point x="584.7216186523" y="1015"/>
			<point x="723.3173217773" y="918"/>
			<point x="723.3173217773" y="851" type="qcurve" smooth="yes"/>
			<point x="723.3173217773" y="787"/>
			<point x="649.0873413086" y="727"/>
			<point x="591.3959350586" y="727" type="qcurve" smooth="yes"/>
			<point x="558.1271362305" y="727" type="line"/>
			<point x="541.3969116211" y="874.1149902344" type="line" smooth="yes"/>
			<point x="541.3969116211" y="856.7385253906"/>
			<point x="497.3151245117" y="906.7007446289"/>
			<point x="428.6915893555" y="906.7007446289" type="qcurve" smooth="yes"/>
			<point x="357.2772827148" y="906.7007446289"/>
			<point x="266.7448120117" y="832.9326171875"/>
			<point x="266.7448120117" y="771.9707641602" type="qcurve" smooth="yes"/>
			<point x="266.7448120117" y="737.323425293"/>
			<point x="346.0243530273" y="664.9357910156"/>
			<point x="420.4664916992" y="609.2321777344" type="qcurve" smooth="yes"/>
			<point x="541.934753418" y="529.6049804688"/>
			<point x="680.3434448242" y="380.4245605469"/>
			<point x="680.3434448242" y="267" type="qcurve"/>
			<point x="681.6719360352" y="146.4241943359"/>
			<point x="468.6539916992" y="-19"/>
			<point x="267.5202026367" y="-19" type="qcurve" smooth="yes"/>
			<point x="139.2548217773" y="-19"/>
			<point x="-17.8506469727" y="83"/>
		</contour>
	</outline>
	<anchor name="bottom" x="282" y="0"/>
	<anchor name="top" x="446" y="1000"/>
</glyph>
<glyph name="t" format="2">
	<unicode hex="0074"/>
	<advance width="546"/>
	<outline>
		<contour>
			<point x="122.6488037109" y="-15" type="line"/>
			<point x="16.9195556641" y="61" type="line"/>
			<point x="103.9195556641" y="512" type="line"/>
			<point x="160.2799072266" y="853.5845947266" type="line"/>
			<point x="12.6888427734" y="870.1998291016" type="line"/>
			<point x="25.2889404297" y="936.7336425781" type="line"/>
			<point x="87.6085205078" y="950.5803222656"/>
			<point x="269.871887207" y="1253.2624511719"/>
			<point x="274.4893798828" y="1237" type="qcurve"/>
			<point x="351.1868896484" y="1237" type="line"/>
			<point x="374.0325927734" y="1179.1159667969" type="line"/>
			<point x="258.2630615234" y="524" type="line"/>
			<point x="212.0826416016" y="121.7062988281" type="line"/>
			<point x="372.5848388672" y="141.7062988281" type="line"/>
			<point x="372.5848388672" y="58" type="line"/>
		</contour>
		<contour>
			<point x="247.1773681641" y="879.3332519531" type="line"/>
			<point x="287.1109619141" y="986.6004638672" type="line"/>
			<point x="558.1766357422" y="1000.6007080078" type="line"/>
			<point x="562.2432861328" y="905.3332519531" type="line"/>
		</contour>
	</outline>
	<anchor name="bottom" x="149" y="0"/>
	<anchor name="center" x="262" y="622"/>
	<anchor name="top" x="322" y="1179"/>
	<anchor name="topright" x="600" y="920"/>
</glyph>
<glyph name="u" format="2">
	<unicode hex="0075"/>
	<advance width="1177"/>
	<outline>
		<contour>
			<point x="768.4877319336" y="-15" type="line"/>
			<point x="705.7191772461" y="124.4599609375" type="line"/>
			<point x="702.092590332" y="308.3338623047" type="line"/>
			<point x="810.1815795898" y="893.6928710938" type="line"/>
			<point x="775.0277709961" y="980.7312011719" type="line"/>
			<point x="951.8710327148" y="1021" type="line"/>
			<point x="994.3707885742" y="942" type="line"/>
			<point x="868.9845581055" y="362" type="line"/>
			<point x="852.143737793" y="128.5246582031" type="line"/>
			<point x="964.9888305664" y="128.5246582031" type="line"/>
			<point x="966.9434204102" y="47" type="line"/>
		</contour>
		<contour>
			<point x="59.1874389648" y="272" type="qcurve" smooth="yes"/>
			<point x="179.1954956055" y="853.1796875" type="line"/>
			<point x="57.7368774414" y="850.1796875" type="line"/>
			<point x="60.6914672852" y="935" type="line"/>
			<point x="218.8016967773" y="1002" type="line"/>
			<point x="286.3009643555" y="1002" type="line"/>
			<point x="345.5309448242" y="892.4245605469" type="line"/>
			<point x="225.1614379883" y="248.0001220703" type="line" smooth="yes"/>
			<point x="212.8948364258" y="187.8671875"/>
			<point x="303.766784668" y="116.9343261719"/>
			<point x="373.169128418" y="116.9343261719" type="qcurve" smooth="yes"/>
			<point x="453.8768920898" y="116.9343261719"/>
			<point x="708.180480957" y="316.8570556641"/>
			<point x="788.1942749023" y="430.4078369141" type="qcurve"/>
			<point x="785.5880737305" y="299.0993652344" type="line"/>
			<point x="715.6452026367" y="206.220703125"/>
			<point x="405.7670288086" y="-7"/>
			<point x="283.5731811523" y="-7" type="qcurve" smooth="yes"/>
			<point x="163.4567260742" y="-7"/>
			<point x="28.612487793" y="126.1979980469"/>
		</contour>
	</outline>
	<anchor name="bottom" x="404" y="0"/>
	<anchor name="ogonek" x="871" y="20"/>
	<anchor name="top" x="572" y="1000"/>
	<anchor name="topright" x="915" y="1000"/>
	<anchor name="cy_descender" x="1018" y="134"/>
</glyph>
<glyph name="v" format="2">
	<unicode hex="0076"/>
	<advance width="996"/>
	<outline>
		<contour>
			<point x="251.0562744141" y="-8" type="line"/>
			<point x="184.0270996094" y="491.1331787109" type="line"/>
			<point x="145.4721679688" y="821.2551269531" type="line"/>
			<point x="44.907043457" y="820.1643066406" type="line"/>
			<point x="47.8616333008" y="911.4619140625" type="line"/>
			<point x="233.2270507812" y="1001" type="line"/>
			<point x="296.8413085938" y="1001" type="line"/>
			<point x="332.5474853516" y="584.4887695312" type="line"/>
			<point x="382.5894775391" y="217.4417724609" type="line"/>
			<point x="385.9625244141" y="157.8762207031" type="line"/>
			<point x="392.2806396484" y="157.8762207031" type="line"/>
			<point x="434.8002929688" y="223.2785644531" type="line"/>
			<point x="601.9964599609" y="448.1280517578"/>
			<point x="700.4720458984" y="621.3157958984"/>
			<point x="700.4720458984" y="691.017578125" type="qcurve" smooth="yes"/>
			<point x="700.4720458984" y="772.1635742188"/>
			<point x="593.6014404297" y="899.3858642578"/>
			<point x="593.6014404297" y="940.6928710938" type="qcurve" smooth="yes"/>
			<point x="593.6014404297" y="977.8950195312"/>
			<point x="659.7622070312" y="1038.8894042969"/>
			<point x="704.7561035156" y="1038.8894042969" type="qcurve" smooth="yes"/>
			<point x="756.8453369141" y="1038.8894042969"/>
			<point x="854.9226074219" y="939.4306640625"/>
			<point x="854.9226074219" y="829.4431152344" type="qcurve" smooth="yes"/>
			<point x="854.9226074219" y="714.9260253906"/>
			<point x="653.0146484375" y="365.1716308594"/>
			<point x="375.4008789062" y="-8" type="qcurve"/>
		</contour>
	</outline>
	<anchor name="bottom" x="513" y="0"/>
	<anchor name="top" x="513" y="1000"/>
</glyph>
<glyph name="w" format="2">
	<unicode hex="0077"/>
	<advance width="1501"/>
	<outline>
		<contour>
			<point x="259.6312255859" y="-8" type="line"/>
			<point x="173.8234863281" y="498.4298095703" type="line"/>
			<point x="115.6606445312" y="834.7023925781" type="line"/>
			<point x="12.4058837891" y="831.7023925781" type="line"/>
			<point x="15.3604736328" y="923" type="line"/>
			<point x="202.6257324219" y="1001" type="line"/>
			<point x="274.3271484375" y="1001" type="line"/>
			<point x="326.3966064453" y="584.2022705078" type="line"/>
			<point x="383.8594970703" y="216.0728759766" type="line"/>
			<point x="387.1549072266" y="144.2205810547" type="line"/>
			<point x="391.1549072266" y="144.2205810547" type="line"/>
			<point x="427.4459838867" y="220.748840332" type="line"/>
			<point x="489.6712646484" y="337.7487792969"/>
			<point x="602.2257080078" y="530.6555175781"/>
			<point x="626.3153686523" y="591.2485961914" type="qcurve"/>
			<point x="582.4356689453" y="833.9932861328" type="line"/>
			<point x="508.6358032227" y="830.789855957" type="line"/>
			<point x="510.7036132812" y="922.7681884766" type="line"/>
			<point x="673.3928222656" y="1000.7681884766" type="line"/>
			<point x="740.4685058594" y="1000.7681884766" type="line"/>
			<point x="800.9154052734" y="559.0135498047" type="line"/>
			<point x="857.9351806641" y="207.8192138672" type="line"/>
			<point x="865.7788085938" y="137.9438476562" type="line"/>
			<point x="869.7788085938" y="137.9438476562" type="line"/>
			<point x="924.4466552734" y="210.1666259766" type="line"/>
			<point x="1083.1569824219" y="419.9261474609"/>
			<point x="1214.4167480469" y="716.9654541016"/>
			<point x="1202.8786621094" y="803" type="qcurve" smooth="yes"/>
			<point x="1191.3405761719" y="857"/>
			<point x="1053.3430175781" y="886.6166992188"/>
			<point x="1052.1892089844" y="911.84765625" type="qcurve" smooth="yes"/>
			<point x="1051.0354003906" y="955.2702636719"/>
			<point x="1128.3420410156" y="1026"/>
			<point x="1184.7258300781" y="1026" type="qcurve" smooth="yes"/>
			<point x="1255.3017578125" y="987.583190918"/>
			<point x="1365.1076660156" y="942.6928710938"/>
			<point x="1365.1076660156" y="851.078125" type="qcurve" smooth="yes"/>
			<point x="1365.1076660156" y="795"/>
			<point x="1167.8515625" y="349.9007568359"/>
			<point x="872.3350830078" y="-8" type="qcurve"/>
			<point x="724.5534667969" y="-8" type="line"/>
			<point x="659.7163085938" y="372.8450927734" type="line"/>
			<point x="655.2727050781" y="427.4189453125" type="line"/>
			<point x="651.2727050781" y="427.4189453125" type="line"/>
			<point x="624.6676025391" y="366.1134033203" type="line"/>
			<point x="593.8127441406" y="300.3316650391"/>
			<point x="471.5692138672" y="105.7817382812"/>
			<point x="406.7143554688" y="-8" type="qcurve"/>
		</contour>
	</outline>
	<anchor name="bottom" x="787" y="0"/>
	<anchor name="top" x="717" y="1000"/>
</glyph>
<glyph name="x" format="2">
	<unicode hex="0078"/>
	<advance width="933"/>
	<outline>
		<contour>
			<point x="118.3688964844" y="-12" type="qcurve"/>
			<point x="-14.3315429688" y="44" type="line"/>
			<point x="-1.1267089844" y="132.3430175781" type="line"/>
			<point x="172.5070800781" y="130.3430175781" type="line" smooth="yes"/>
			<point x="198.1157226562" y="130.1112060547"/>
			<point x="245.7762451172" y="195.4798583984"/>
			<point x="278.0541992188" y="246.7863769531" type="qcurve" smooth="yes"/>
			<point x="337.3328857422" y="330.1391601562"/>
			<point x="384.1336669922" y="421.521484375"/>
			<point x="418.6429443359" y="483.623046875" type="qcurve"/>
			<point x="294.1787109375" y="844.6115722656" type="line"/>
			<point x="133.4688720703" y="829.7023925781" type="line"/>
			<point x="136.4234619141" y="915" type="line"/>
			<point x="339.7248535156" y="1004" type="line"/>
			<point x="430.2236328125" y="985" type="line"/>
			<point x="485.3698730469" y="776.9715576172" type="line"/>
			<point x="514.5498046875" y="660.8499755859" type="line"/>
			<point x="518.5498046875" y="660.8499755859" type="line"/>
			<point x="562.5863037109" y="744.7210693359" type="line" smooth="yes"/>
			<point x="616.9211425781" y="832.9617919922"/>
			<point x="573.0218505859" y="795.6610107422"/>
			<point x="614.3991699219" y="856.2806396484" type="qcurve" smooth="yes"/>
			<point x="666.9537353516" y="936.23046875"/>
			<point x="775.8569335938" y="1002"/>
			<point x="818.1585693359" y="1002" type="qcurve" smooth="yes"/>
			<point x="866.1585693359" y="1002"/>
			<point x="903.6949462891" y="953"/>
			<point x="903.6949462891" y="919" type="qcurve" smooth="yes"/>
			<point x="903.6949462891" y="873"/>
			<point x="847.1585693359" y="822"/>
			<point x="827.1585693359" y="822" type="qcurve"/>
			<point x="811.1585693359" y="833" type="line"/>
			<point x="809.9934082031" y="852.3271484375" type="line" smooth="yes"/>
			<point x="807.8948974609" y="844.9995117188"/>
			<point x="793.8251953125" y="857.7994384766"/>
			<point x="779.4919433594" y="857.7994384766" type="qcurve" smooth="yes"/>
			<point x="758.4919433594" y="857.7994384766"/>
			<point x="684.4888916016" y="774.8328857422"/>
			<point x="647.7659912109" y="717.5146484375" type="qcurve" smooth="yes"/>
			<point x="577.9794921875" y="617.8312988281"/>
			<point x="605.6596679688" y="630.0092773438"/>
			<point x="558.9383544922" y="545.8094482422" type="qcurve"/>
			<point x="702.9156494141" y="128.001953125" type="line"/>
			<point x="823.7163085938" y="128.001953125" type="line"/>
			<point x="823.7163085938" y="46" type="line"/>
			<point x="648.0554199219" y="-8.4500732422" type="line"/>
			<point x="556.7487792969" y="9.5499267578" type="line"/>
			<point x="470.3394775391" y="304.5598144531" type="line"/>
			<point x="457.4724121094" y="368.1044921875" type="line"/>
			<point x="453.4724121094" y="368.1044921875" type="line"/>
			<point x="426.2041015625" y="308.6970214844" type="line"/>
			<point x="405.7392578125" y="270.8793945312"/>
			<point x="446.5187988281" y="295.2908935547"/>
			<point x="362.7415771484" y="167.3698730469" type="qcurve" smooth="yes"/>
			<point x="301.2883300781" y="72.4197998047"/>
			<point x="181.9691162109" y="-21.8001708984"/>
		</contour>
	</outline>
	<anchor name="bottom" x="522" y="0"/>
	<anchor name="top" x="522" y="1000"/>
	<anchor name="cy_descender" x="832" y="134"/>
	<anchor name="center" x="432" y="502"/>
</glyph>
<glyph name="y" format="2">
	<unicode hex="0079"/>
	<advance width="1056"/>
	<outline>
		<contour>
			<point x="-193.1623535156" y="-425" type="line"/>
			<point x="-181.1623535156" y="-379" type="line"/>
			<point x="-60.7208251953" y="-377" type="line" smooth="yes"/>
			<point x="53.5295410156" y="-375"/>
			<point x="300.1680297852" y="-105.3809814453"/>
			<point x="342.1047973633" y="-25.6818847656" type="qcurve" smooth="yes"/>
			<point x="352.8550415039" y="0" type="line"/>
			<point x="284.1127929688" y="0" type="line"/>
			<point x="235.2749023438" y="293"/>
			<point x="187.7868652344" y="659.7023925781"/>
			<point x="150.0666503906" y="834.7023925781" type="qcurve"/>
			<point x="43.4708251953" y="831.7023925781" type="line"/>
			<point x="46.4254150391" y="923" type="line"/>
			<point x="251.1110839844" y="1001" type="line"/>
			<point x="313.5715332031" y="1001" type="line"/>
			<point x="328.5715332031" y="925" type="line"/>
			<point x="430.5366210938" y="176.3902587891" type="line"/>
			<point x="436.1696166992" y="87.1959228516" type="line"/>
			<point x="440.1696166992" y="87.1959228516" type="line"/>
			<point x="499.0287475586" y="176.9295654297" type="line" smooth="yes"/>
			<point x="669.5815429688" y="430.1327514648"/>
			<point x="759.1108398438" y="682"/>
			<point x="759.1108398438" y="803" type="qcurve" smooth="yes"/>
			<point x="759.1108398438" y="857"/>
			<point x="690.9742431641" y="927"/>
			<point x="690.9742431641" y="958" type="qcurve" smooth="yes"/>
			<point x="690.9742431641" y="987"/>
			<point x="746.9354248047" y="1026"/>
			<point x="783.1275634766" y="1026" type="qcurve" smooth="yes"/>
			<point x="834.6656494141" y="1026"/>
			<point x="921.2182617188" y="960"/>
			<point x="921.2182617188" y="888" type="qcurve" smooth="yes"/>
			<point x="921.2182617188" y="800.9949951172"/>
			<point x="733.4539794922" y="343.0983276367"/>
			<point x="443.8850708008" y="-37.345703125" type="qcurve" smooth="yes"/>
			<point x="419.6015014648" y="-71.6502685547" type="line" smooth="yes"/>
			<point x="284.1489868164" y="-250.6569824219"/>
			<point x="32.6208496094" y="-464"/>
			<point x="-80.9155273438" y="-464" type="qcurve"/>
		</contour>
	</outline>
	<anchor name="bottom" x="782" y="0"/>
	<anchor name="top" x="504" y="1000"/>
</glyph>
<glyph name="z" format="2">
	<unicode hex="007A"/>
	<advance width="708"/>
	<outline>
		<contour>
			<point x="-37.0299072266" y="-2.2000732422" type="line"/>
			<point x="-88.0036621094" y="72.4005126953" type="line"/>
			<point x="3.4816894531" y="193.7338867188"/>
			<point x="193.8217773438" y="469.3337402344"/>
			<point x="250.2312011719" y="550.3337402344" type="qcurve" smooth="yes"/>
			<point x="291.6541748047" y="611.3337402344"/>
			<point x="393.3868408203" y="761.3179931641"/>
			<point x="454.7827148438" y="852.1179199219" type="qcurve"/>
			<point x="169.484375" y="845.8103027344" type="line"/>
			<point x="133.6164550781" y="799.9987792969" type="line"/>
			<point x="27.1689453125" y="799.9987792969" type="line"/>
			<point x="61.0358886719" y="962" type="line"/>
			<point x="103.0358886719" y="991" type="line"/>
			<point x="633.5151367188" y="992" type="line"/>
			<point x="653.3151855469" y="926.3330078125" type="line"/>
			<point x="592.6739501953" y="820.3330078125"/>
			<point x="448.5478515625" y="605"/>
			<point x="365.9793701172" y="497" type="qcurve" smooth="yes"/>
			<point x="322.4836425781" y="437"/>
			<point x="191.1097412109" y="254.9234619141"/>
			<point x="121.5734863281" y="195.8568115234" type="qcurve"/>
			<point x="481.0715942383" y="143.2384033203" type="line"/>
			<point x="510.8865356445" y="190.0367431641" type="line"/>
			<point x="599.2275390625" y="158.7387084961" type="line"/>
			<point x="546.9923095703" y="-10" type="line"/>
			<point x="510.9923095703" y="-29" type="line"/>
			<point x="36.5703125" y="66.2666015625" type="line"/>
		</contour>
	</outline>
	<anchor name="bottom" x="443" y="0"/>
	<anchor name="top" x="463" y="1000"/>
	<anchor name="_liga" x="0" y="0"/>
</glyph>
<glyph name="idotless" format="2">
	<unicode hex="0131"/>
	<advance width="568"/>
	<outline>
		<contour>
			<point x="114.4075317383" y="-21" type="line"/>
			<point x="53.2158813477" y="116.4599609375" type="line"/>
			<point x="136.8316040039" y="527" type="line"/>
			<point x="193.3311157227" y="827.7023925781" type="line"/>
			<point x="63.3043823242" y="825.7023925781" type="line"/>
			<point x="66.258972168" y="915" type="line"/>
			<point x="261.2153930664" y="1004" type="line"/>
			<point x="334.7913208008" y="1004" type="line"/>
			<point x="383.4443969727" y="883.38671875" type="line"/>
			<point x="360.7903442383" y="849" type="line"/>
			<point x="295.2134399414" y="501.5773925781" type="line"/>
			<point x="226.6734008789" y="137.001953125" type="line"/>
			<point x="409.0165405273" y="161.001953125" type="line"/>
			<point x="409.0165405273" y="76" type="line"/>
		</contour>
	</outline>
	<anchor name="bottom" x="180" y="0"/>
	<anchor name="top" x="320" y="1000"/>
	<anchor name="ogonek" x="180" y="0"/>
	<anchor name="yu_dash" x="239" y="498"/>
	<anchor name="liga" x="618" y="0"/>
</glyph>
<glyph name="jdotless" format="2">
	<unicode hex="0237"/>
	<advance width="538"/>
	<outline>
		<contour>
			<point x="204.1994628906" y="827.7023925781" type="qcurve"/>
			<point x="70.3543701172" y="825.7023925781" type="line"/>
			<point x="73.3089599609" y="915" type="line"/>
			<point x="261.380859375" y="1004" type="line"/>
			<point x="340.7258300781" y="1004" type="line"/>
			<point x="391.1096191406" y="883.9636230469" type="line"/>
			<point x="359.8020019531" y="849" type="line"/>
			<point x="235.9558105469" y="132" type="line"/>
			<point x="195.2924804688" y="-129.138671875"/>
			<point x="37.6022949219" y="-464"/>
			<point x="-170.126953125" y="-464" type="qcurve"/>
			<point x="-315.7995605469" y="-425" type="line"/>
			<point x="-299.2082519531" y="-341.7023925781" type="line"/>
			<point x="-170.8823242188" y="-342.7478027344" type="line" smooth="yes"/>
			<point x="-45.5263671875" y="-344.7478027344"/>
			<point x="31.4035644531" y="-88.3857421875"/>
			<point x="75.6091308594" y="148.7517089844" type="qcurve" smooth="yes"/>
			<point x="101.8815917969" y="277"/>
			<point x="188.8815917969" y="741"/>
		</contour>
	</outline>
	<anchor name="bottom" x="88" y="-436"/>
	<anchor name="top" x="320" y="1000"/>
	<anchor name="_liga" x="0" y="0"/>
</glyph>
